# Blender v2.77 (sub 0) OBJ File: ''
# www.blender.org
mtllib keycard.mtl
o Cube
v 1.843043 -0.031546 -0.866940
v 1.733880 -0.083333 -0.866940
v 1.597808 -0.031546 -1.000000
v 1.843043 -0.031546 0.866940
v 1.597808 -0.031546 1.000000
v 1.733880 -0.083333 0.866940
v -1.597808 -0.031546 1.000000
v -1.843043 -0.031546 0.866940
v -1.733880 -0.083333 0.866940
v -1.597807 -0.031546 -1.000000
v -1.733879 -0.083333 -0.866940
v -1.843043 -0.031546 -0.866940
v 1.597809 0.031546 -1.000000
v 1.733881 0.083333 -0.866940
v 1.843044 0.031546 -0.866940
v 1.597807 0.031546 1.000000
v 1.843042 0.031546 0.866941
v 1.733879 0.083333 0.866941
v -1.843044 0.031546 0.866940
v -1.597809 0.031546 1.000000
v -1.733881 0.083333 0.866940
v -1.843043 0.031546 -0.866940
v -1.733880 0.083333 -0.866940
v -1.597808 0.031546 -1.000000
v -1.733880 -0.083333 0.866940
v -1.733879 -0.083333 -0.866940
v -1.597807 -0.031546 -1.000000
v -1.733879 -0.083333 -0.866940
v -1.843043 -0.031546 -0.866940
v -1.843043 0.031546 -0.866940
v -1.733880 0.083333 -0.866940
v -1.597808 0.031546 -1.000000
vt 0.1897 0.6892
vt 0.1897 0.3108
vt 0.2576 0.3108
vt 0.2576 0.6892
vt 0.1835 0.3108
vt 0.1835 0.6892
vt 0.1156 0.6892
vt 0.1156 0.3108
vt 0.1121 0.3108
vt 0.1119 0.6892
vt 0.0382 0.6892
vt 0.0384 0.3108
vt 0.9908 0.9916
vt 0.5408 0.9915
vt 0.5409 0.2915
vt 0.9909 0.2916
vt 0.3346 0.3108
vt 0.3346 0.6892
vt 0.2609 0.6892
vt 0.2609 0.3108
vt 0.8097 0.1026
vt 0.8116 0.0220
vt 0.8747 0.1026
vt 0.8064 0.1026
vt 0.7414 0.1026
vt 0.7674 0.0220
vt 0.7382 0.1026
vt 0.6732 0.1026
vt 0.6754 0.0220
vt 0.8779 0.1026
vt 0.9037 0.0220
vt 0.9429 0.1026
vt 0.8746 0.1832
vt 0.8487 0.2638
vt 0.8096 0.1832
vt 0.7414 0.1832
vt 0.8064 0.1832
vt 0.8045 0.2638
vt 0.6728 0.1832
vt 0.7379 0.1832
vt 0.7116 0.2638
vt 0.9429 0.1832
vt 0.9410 0.2638
vt 0.8779 0.1832
vt 0.2609 0.0001
vt 0.3346 0.0001
vt 0.1868 0.0001
vt 0.2605 0.0001
vt 0.1127 0.0001
vt 0.1864 0.0001
vt 0.0386 0.0001
vt 0.1123 0.0001
vt 0.3346 0.9998
vt 0.2609 0.9998
vt 0.2605 0.9999
vt 0.1868 0.9999
vt 0.1864 0.9999
vt 0.1127 0.9999
vt 0.1117 0.9999
vt 0.0380 0.9998
vt 0.9917 0.2924
vt 0.9918 0.9924
vt 0.5398 0.9925
vt 0.5398 0.2925
vt 0.3627 0.8636
vt 0.3628 0.5423
vt 0.5141 0.5423
vt 0.5141 0.8635
vt 0.3537 0.0935
vt 0.3537 0.1748
vt 0.4201 0.1748
vt 0.4129 0.0935
vt 0.5159 0.0257
vt 0.6200 0.0913
vt 0.5523 0.0913
vt 0.5175 0.0487
vt 0.5539 0.1749
vt 0.3895 0.2576
vt 0.4049 0.2164
vt 0.4869 0.1749
vn 0.0000 0.0000 -1.0000
vn -0.0000 -0.0000 1.0000
vn -1.0000 -0.0000 -0.0000
vn 0.0000 1.0000 0.0000
vn 1.0000 -0.0000 0.0000
vn 0.3363 -0.7090 -0.6199
vn 0.3363 -0.7090 0.6199
vn -0.3363 -0.7090 0.6199
vn -0.3363 -0.7090 -0.6199
vn 0.3363 0.7090 -0.6199
vn 0.3363 0.7090 0.6199
vn -0.3363 0.7090 0.6199
vn -0.3363 0.7090 -0.6199
vn 0.4286 -0.9035 0.0000
vn 0.0000 -0.9319 -0.3627
vn 0.4769 -0.0000 -0.8790
vn -0.0000 -0.9319 0.3627
vn 0.4769 -0.0000 0.8790
vn -0.4286 -0.9035 -0.0000
vn -0.4769 -0.0000 0.8790
vn -0.4769 0.0000 -0.8790
vn 0.4286 0.9035 0.0000
vn 0.0000 0.9319 -0.3627
vn -0.0000 0.9319 0.3627
vn -0.4286 0.9035 -0.0000
vn 0.0000 -1.0000 0.0000
usemtl Material
s off
f 13/1/1 3/2/1 10/3/1 24/4/1
f 5/5/2 16/6/2 20/7/2 7/8/2
f 8/9/3 19/10/3 22/11/3 12/12/3
f 14/13/4 23/14/4 21/15/4 18/16/4
f 1/17/5 15/18/5 17/19/5 4/20/5
f 1/21/6 2/22/6 3/23/6
f 4/24/7 5/25/7 6/26/7
f 7/27/8 8/28/8 9/29/8
f 10/30/9 11/31/9 12/32/9
f 13/33/10 14/34/10 15/35/10
f 16/36/11 17/37/11 18/38/11
f 19/39/12 20/40/12 21/41/12
f 22/42/13 23/43/13 24/44/13
f 1/17/14 4/20/14 6/45/14 2/46/14
f 2/47/15 11/48/15 10/3/15 3/2/15
f 3/23/16 13/33/16 15/35/16 1/21/16
f 5/5/17 7/8/17 9/49/17 6/50/17
f 4/24/18 17/37/18 16/36/18 5/25/18
f 8/9/19 12/12/19 11/51/19 9/52/19
f 7/27/20 20/40/20 19/39/20 8/28/20
f 12/32/21 22/42/21 24/44/21 10/30/21
f 14/53/22 18/54/22 17/19/22 15/18/22
f 13/1/23 24/4/23 23/55/23 14/56/23
f 18/57/24 21/58/24 20/7/24 16/6/24
f 21/59/25 23/60/25 22/11/25 19/10/25
f 2/61/26 6/62/26 9/63/26 11/64/26
f 11/65/2 9/66/2 25/67/2 26/68/2
f 10/69/2 24/70/2 32/71/2 27/72/2
f 11/73/2 12/74/2 29/75/2 28/76/2
f 22/77/2 23/78/2 31/79/2 30/80/2
f 22/77/2 12/74/2 29/75/2 30/80/2
f 23/78/2 24/70/2 32/71/2 31/79/2
f 10/69/2 11/73/2 28/76/2 27/72/2
