# MagicaVoxel @ Ephtracy

# material
mtllib greenDagegr.mtl
usemtl palette

# normals
vn -1 0 0
vn 1 0 0
vn 0 0 1
vn 0 0 -1
vn 0 -1 0
vn 0 1 0

# texcoords
vt 0.00976563 0.5
vt 0.0410156 0.5
vt 0.0449219 0.5
vt 0.814453 0.5
vt 0.818359 0.5
vt 0.826172 0.5
vt 0.947266 0.5

# verts
v -8 0 1
v -8 0 -0
v -8 3 1
v -8 3 -0
v -7 5 1
v -7 5 -0
v -7 7 1
v -7 7 -0
v -6 2 2
v -6 2 1
v -6 2 -0
v -6 2 -1
v -6 3 2
v -6 3 1
v -6 3 -0
v -6 3 -1
v -6 4 1
v -6 4 -0
v -6 6 2
v -6 6 1
v -6 6 -0
v -6 6 -1
v -6 7 2
v -6 7 1
v -6 7 -0
v -6 7 -1
v -6 8 1
v -6 8 -0
v -5 3 2
v -5 3 1
v -5 3 -0
v -5 3 -1
v -5 4 2
v -5 4 1
v -5 4 -0
v -5 4 -1
v -5 5 2
v -5 5 1
v -5 5 -0
v -5 5 -1
v -5 6 2
v -5 6 1
v -5 6 -0
v -5 6 -1
v -4 4 2
v -4 4 1
v -4 4 -0
v -4 4 -1
v -4 5 2
v -4 5 1
v -4 5 -0
v -4 5 -1
v -3 1 1
v -3 1 -0
v -3 2 1
v -3 2 -0
v -3 3 2
v -3 3 1
v -3 3 -0
v -3 3 -1
v -3 4 2
v -3 4 1
v -3 4 -0
v -3 4 -1
v -3 7 1
v -3 7 -0
v -3 8 1
v -3 8 -0
v -2 2 2
v -2 2 1
v -2 2 -0
v -2 2 -1
v -2 3 2
v -2 3 1
v -2 3 -0
v -2 3 -1
v -2 8 1
v -2 8 -0
v -2 9 1
v -2 9 -0
v -1 9 1
v -1 9 -0
v -1 10 1
v -1 10 -0
v 0 10 1
v 0 10 -0
v 0 11 1
v 0 11 -0
v 1 11 1
v 1 11 -0
v 1 12 1
v 1 12 -0
v -5 0 1
v -5 0 -0
v -5 2 2
v -5 2 1
v -5 2 -0
v -5 2 -1
v -5 3 2
v -5 3 1
v -5 3 -0
v -5 3 -1
v -4 2 1
v -4 2 -0
v -4 3 2
v -4 3 1
v -4 3 -0
v -4 3 -1
v -4 4 2
v -4 4 1
v -4 4 -0
v -4 4 -1
v -4 6 2
v -4 6 1
v -4 6 -0
v -4 6 -1
v -4 7 2
v -4 7 1
v -4 7 -0
v -4 7 -1
v -4 8 1
v -4 8 -0
v -3 5 2
v -3 5 1
v -3 5 -0
v -3 5 -1
v -3 6 2
v -3 6 1
v -3 6 -0
v -3 6 -1
v -2 4 2
v -2 4 1
v -2 4 -0
v -2 4 -1
v -2 5 2
v -2 5 1
v -2 5 -0
v -2 5 -1
v -1 1 1
v -1 1 -0
v -1 2 2
v -1 2 1
v -1 2 -0
v -1 2 -1
v -1 3 -0
v -1 3 -1
v -1 4 2
v -1 4 1
v -1 4 -0
v -1 4 -1
v -1 5 1
v -1 5 -0
v 0 2 1
v 0 2 -0
v 0 4 1
v 0 4 -0
v 0 5 1
v 0 5 -0
v 0 6 1
v 0 6 -0
v 1 6 1
v 1 6 -0
v 1 7 1
v 1 7 -0
v 2 7 1
v 2 7 -0
v 2 8 1
v 2 8 -0
v 3 8 1
v 3 8 -0
v 3 9 1
v 3 9 -0
v 4 9 1
v 4 9 -0
v 4 12 1
v 4 12 -0
v -6 2 2
v -6 3 2
v -6 6 2
v -6 7 2
v -5 2 2
v -5 3 2
v -5 4 2
v -5 5 2
v -5 6 2
v -4 3 2
v -4 4 2
v -4 5 2
v -4 6 2
v -4 7 2
v -3 3 2
v -3 4 2
v -3 5 2
v -3 6 2
v -2 2 2
v -2 3 2
v -2 4 2
v -2 5 2
v -1 2 2
v -1 4 2
v -8 0 1
v -8 3 1
v -7 0 1
v -7 1 1
v -7 2 1
v -7 5 1
v -7 7 1
v -6 1 1
v -6 2 1
v -6 3 1
v -6 4 1
v -6 6 1
v -6 7 1
v -6 8 1
v -5 0 1
v -5 2 1
v -5 3 1
v -5 4 1
v -5 5 1
v -5 6 1
v -4 2 1
v -4 3 1
v -4 4 1
v -4 5 1
v -4 6 1
v -4 7 1
v -4 8 1
v -3 1 1
v -3 2 1
v -3 3 1
v -3 4 1
v -3 5 1
v -3 6 1
v -3 7 1
v -3 8 1
v -2 2 1
v -2 3 1
v -2 4 1
v -2 5 1
v -2 6 1
v -2 8 1
v -2 9 1
v -1 1 1
v -1 2 1
v -1 4 1
v -1 5 1
v -1 6 1
v -1 7 1
v -1 9 1
v -1 10 1
v 0 2 1
v 0 4 1
v 0 5 1
v 0 6 1
v 0 7 1
v 0 8 1
v 0 10 1
v 0 11 1
v 1 6 1
v 1 7 1
v 1 8 1
v 1 9 1
v 1 11 1
v 1 12 1
v 2 7 1
v 2 8 1
v 2 9 1
v 2 11 1
v 3 8 1
v 3 9 1
v 3 11 1
v 3 12 1
v 4 9 1
v 4 12 1
v -8 0 -0
v -8 3 -0
v -7 0 -0
v -7 1 -0
v -7 2 -0
v -7 5 -0
v -7 7 -0
v -6 1 -0
v -6 2 -0
v -6 3 -0
v -6 4 -0
v -6 6 -0
v -6 7 -0
v -6 8 -0
v -5 0 -0
v -5 2 -0
v -5 3 -0
v -5 4 -0
v -5 5 -0
v -5 6 -0
v -4 2 -0
v -4 3 -0
v -4 4 -0
v -4 5 -0
v -4 6 -0
v -4 7 -0
v -4 8 -0
v -3 1 -0
v -3 2 -0
v -3 3 -0
v -3 4 -0
v -3 5 -0
v -3 6 -0
v -3 7 -0
v -3 8 -0
v -2 2 -0
v -2 3 -0
v -2 4 -0
v -2 5 -0
v -2 6 -0
v -2 8 -0
v -2 9 -0
v -1 1 -0
v -1 2 -0
v -1 3 -0
v -1 4 -0
v -1 5 -0
v -1 6 -0
v -1 7 -0
v -1 9 -0
v -1 10 -0
v 0 2 -0
v 0 4 -0
v 0 5 -0
v 0 6 -0
v 0 7 -0
v 0 8 -0
v 0 10 -0
v 0 11 -0
v 1 6 -0
v 1 7 -0
v 1 8 -0
v 1 9 -0
v 1 11 -0
v 1 12 -0
v 2 7 -0
v 2 8 -0
v 2 9 -0
v 2 11 -0
v 3 8 -0
v 3 9 -0
v 3 11 -0
v 3 12 -0
v 4 9 -0
v 4 12 -0
v -6 2 -1
v -6 3 -1
v -6 6 -1
v -6 7 -1
v -5 2 -1
v -5 3 -1
v -5 4 -1
v -5 5 -1
v -5 6 -1
v -4 3 -1
v -4 4 -1
v -4 5 -1
v -4 6 -1
v -4 7 -1
v -3 3 -1
v -3 4 -1
v -3 5 -1
v -3 6 -1
v -2 2 -1
v -2 3 -1
v -2 4 -1
v -2 5 -1
v -1 2 -1
v -1 3 -1
v -1 4 -1
v -8 0 1
v -7 0 1
v -5 0 1
v -8 0 -0
v -7 0 -0
v -5 0 -0
v -3 1 1
v -1 1 1
v -3 1 -0
v -1 1 -0
v -6 2 2
v -5 2 2
v -2 2 2
v -1 2 2
v -6 2 1
v -5 2 1
v -4 2 1
v -2 2 1
v -1 2 1
v 0 2 1
v -6 2 -0
v -5 2 -0
v -4 2 -0
v -2 2 -0
v -1 2 -0
v 0 2 -0
v -6 2 -1
v -5 2 -1
v -2 2 -1
v -1 2 -1
v -5 3 2
v -4 3 2
v -3 3 2
v -2 3 2
v -5 3 1
v -4 3 1
v -3 3 1
v -2 3 1
v -5 3 -0
v -4 3 -0
v -3 3 -0
v -2 3 -0
v -5 3 -1
v -4 3 -1
v -3 3 -1
v -2 3 -1
v -4 4 2
v -3 4 2
v -4 4 1
v -3 4 1
v -4 4 -0
v -3 4 -0
v -4 4 -1
v -3 4 -1
v -5 5 2
v -4 5 2
v -7 5 1
v -5 5 1
v -4 5 1
v -1 5 1
v 0 5 1
v -7 5 -0
v -5 5 -0
v -4 5 -0
v -1 5 -0
v 0 5 -0
v -5 5 -1
v -4 5 -1
v -6 6 2
v -5 6 2
v -6 6 1
v -5 6 1
v 0 6 1
v 1 6 1
v -6 6 -0
v -5 6 -0
v 0 6 -0
v 1 6 -0
v -6 6 -1
v -5 6 -1
v 1 7 1
v 2 7 1
v 1 7 -0
v 2 7 -0
v 2 8 1
v 3 8 1
v 2 8 -0
v 3 8 -0
v 3 9 1
v 4 9 1
v 3 9 -0
v 4 9 -0
v -6 3 2
v -5 3 2
v -8 3 1
v -6 3 1
v -5 3 1
v -8 3 -0
v -6 3 -0
v -5 3 -0
v -6 3 -1
v -5 3 -1
v -5 4 2
v -4 4 2
v -2 4 2
v -1 4 2
v -6 4 1
v -5 4 1
v -4 4 1
v -2 4 1
v -1 4 1
v 0 4 1
v -6 4 -0
v -5 4 -0
v -4 4 -0
v -2 4 -0
v -1 4 -0
v 0 4 -0
v -5 4 -1
v -4 4 -1
v -2 4 -1
v -1 4 -1
v -3 5 2
v -2 5 2
v -3 5 1
v -2 5 1
v -3 5 -0
v -2 5 -0
v -3 5 -1
v -2 5 -1
v -4 6 2
v -3 6 2
v -4 6 1
v -3 6 1
v -4 6 -0
v -3 6 -0
v -4 6 -1
v -3 6 -1
v -6 7 2
v -4 7 2
v -7 7 1
v -6 7 1
v -4 7 1
v -3 7 1
v -7 7 -0
v -6 7 -0
v -4 7 -0
v -3 7 -0
v -6 7 -1
v -4 7 -1
v -6 8 1
v -4 8 1
v -3 8 1
v -2 8 1
v -6 8 -0
v -4 8 -0
v -3 8 -0
v -2 8 -0
v -2 9 1
v -1 9 1
v -2 9 -0
v -1 9 -0
v -1 10 1
v 0 10 1
v -1 10 -0
v 0 10 -0
v 0 11 1
v 1 11 1
v 0 11 -0
v 1 11 -0
v 1 12 1
v 3 12 1
v 4 12 1
v 1 12 -0
v 3 12 -0
v 4 12 -0

# faces
f 3/3/1 2/3/1 1/3/1
f 4/3/1 2/3/1 3/3/1
f 7/3/1 6/3/1 5/3/1
f 8/3/1 6/3/1 7/3/1
f 13/3/1 10/3/1 9/3/1
f 14/3/1 10/3/1 13/3/1
f 15/3/1 12/3/1 11/3/1
f 16/3/1 12/3/1 15/3/1
f 17/3/1 15/3/1 14/3/1
f 18/3/1 15/3/1 17/3/1
f 23/3/1 20/3/1 19/3/1
f 24/3/1 20/3/1 23/3/1
f 25/3/1 22/3/1 21/3/1
f 26/3/1 22/3/1 25/3/1
f 27/3/1 25/3/1 24/3/1
f 28/3/1 25/3/1 27/3/1
f 33/3/1 30/3/1 29/3/1
f 34/3/1 30/3/1 33/3/1
f 35/3/1 32/3/1 31/3/1
f 36/3/1 32/3/1 35/3/1
f 38/3/1 35/3/1 34/3/1
f 39/3/1 35/3/1 38/3/1
f 41/3/1 38/3/1 37/3/1
f 42/3/1 38/3/1 41/3/1
f 43/3/1 40/3/1 39/3/1
f 44/3/1 40/3/1 43/3/1
f 49/3/1 46/3/1 45/3/1
f 50/3/1 46/3/1 49/3/1
f 51/3/1 48/3/1 47/3/1
f 52/3/1 48/3/1 51/3/1
f 55/2/1 54/2/1 53/2/1
f 56/2/1 54/2/1 55/2/1
f 58/3/1 56/3/1 55/3/1
f 59/3/1 56/3/1 58/3/1
f 61/3/1 58/3/1 57/3/1
f 62/3/1 58/3/1 61/3/1
f 63/3/1 60/3/1 59/3/1
f 64/3/1 60/3/1 63/3/1
f 67/6/1 66/6/1 65/6/1
f 68/6/1 66/6/1 67/6/1
f 73/2/1 70/2/1 69/2/1
f 74/2/1 70/2/1 73/2/1
f 75/2/1 72/2/1 71/2/1
f 76/2/1 72/2/1 75/2/1
f 79/6/1 78/6/1 77/6/1
f 80/6/1 78/6/1 79/6/1
f 83/6/1 82/6/1 81/6/1
f 84/6/1 82/6/1 83/6/1
f 87/6/1 86/6/1 85/6/1
f 88/6/1 86/6/1 87/6/1
f 91/6/1 90/6/1 89/6/1
f 92/6/1 90/6/1 91/6/1
f 93/2/2 94/2/2 96/2/2
f 96/2/2 94/2/2 97/2/2
f 95/3/2 96/3/2 99/3/2
f 99/3/2 96/3/2 100/3/2
f 97/3/2 98/3/2 101/3/2
f 101/3/2 98/3/2 102/3/2
f 103/2/2 104/2/2 106/2/2
f 106/2/2 104/2/2 107/2/2
f 105/3/2 106/3/2 109/3/2
f 109/3/2 106/3/2 110/3/2
f 107/3/2 108/3/2 111/3/2
f 111/3/2 108/3/2 112/3/2
f 113/3/2 114/3/2 117/3/2
f 117/3/2 114/3/2 118/3/2
f 115/3/2 116/3/2 119/3/2
f 119/3/2 116/3/2 120/3/2
f 118/3/2 119/3/2 121/3/2
f 121/3/2 119/3/2 122/3/2
f 123/3/2 124/3/2 127/3/2
f 127/3/2 124/3/2 128/3/2
f 125/3/2 126/3/2 129/3/2
f 129/3/2 126/3/2 130/3/2
f 131/3/2 132/3/2 135/3/2
f 135/3/2 132/3/2 136/3/2
f 133/3/2 134/3/2 137/3/2
f 137/3/2 134/3/2 138/3/2
f 139/2/2 140/2/2 142/2/2
f 142/2/2 140/2/2 143/2/2
f 143/2/2 144/2/2 145/2/2
f 145/2/2 144/2/2 146/2/2
f 141/2/2 142/2/2 147/2/2
f 147/2/2 142/2/2 148/2/2
f 145/1/2 146/1/2 149/1/2
f 149/1/2 146/1/2 150/1/2
f 148/4/2 149/4/2 151/4/2
f 151/4/2 149/4/2 152/4/2
f 153/2/2 154/2/2 155/2/2
f 155/2/2 154/2/2 156/2/2
f 157/4/2 158/4/2 159/4/2
f 159/4/2 158/4/2 160/4/2
f 161/4/2 162/4/2 163/4/2
f 163/4/2 162/4/2 164/4/2
f 165/4/2 166/4/2 167/4/2
f 167/4/2 166/4/2 168/4/2
f 169/4/2 170/4/2 171/4/2
f 171/4/2 170/4/2 172/4/2
f 173/4/2 174/4/2 175/4/2
f 175/4/2 174/4/2 176/4/2
f 181/3/3 178/3/3 177/3/3
f 182/3/3 178/3/3 181/3/3
f 185/3/3 180/3/3 179/3/3
f 186/3/3 183/3/3 182/3/3
f 187/3/3 183/3/3 186/3/3
f 188/3/3 185/3/3 184/3/3
f 189/3/3 180/3/3 185/3/3
f 189/3/3 185/3/3 188/3/3
f 190/3/3 180/3/3 189/3/3
f 192/3/3 188/3/3 187/3/3
f 192/3/3 189/3/3 188/3/3
f 193/3/3 189/3/3 192/3/3
f 194/3/3 189/3/3 193/3/3
f 196/3/3 192/3/3 191/3/3
f 196/3/3 193/3/3 192/3/3
f 197/3/3 193/3/3 196/3/3
f 198/3/3 193/3/3 197/3/3
f 199/2/3 196/2/3 195/2/3
f 199/2/3 197/2/3 196/2/3
f 200/2/3 197/2/3 199/2/3
f 203/3/3 202/3/3 201/3/3
f 204/3/3 202/3/3 203/3/3
f 205/3/3 202/3/3 204/3/3
f 208/2/3 204/2/3 203/2/3
f 208/7/3 205/7/3 204/7/3
f 209/3/3 202/3/3 205/3/3
f 209/7/3 205/7/3 208/7/3
f 210/3/3 202/3/3 209/3/3
f 212/3/3 207/3/3 206/3/3
f 213/3/3 207/3/3 212/3/3
f 215/2/3 208/2/3 203/2/3
f 215/2/3 209/2/3 208/2/3
f 216/2/3 209/2/3 215/2/3
f 217/3/3 211/3/3 210/3/3
f 218/3/3 211/3/3 217/3/3
f 219/3/3 212/3/3 206/3/3
f 220/3/3 212/3/3 219/3/3
f 221/2/3 217/2/3 216/2/3
f 222/2/3 217/2/3 221/2/3
f 223/3/3 219/3/3 218/3/3
f 224/3/3 219/3/3 223/3/3
f 226/3/3 214/3/3 213/3/3
f 227/3/3 214/3/3 226/3/3
f 230/2/3 223/2/3 222/2/3
f 231/2/3 223/2/3 230/2/3
f 233/6/3 226/6/3 225/6/3
f 234/6/3 226/6/3 233/6/3
f 236/2/3 229/2/3 228/2/3
f 236/3/3 230/3/3 229/3/3
f 237/3/3 230/3/3 236/3/3
f 239/6/3 235/6/3 234/6/3
f 239/6/3 234/6/3 233/6/3
f 239/6/3 233/6/3 232/6/3
f 240/6/3 235/6/3 239/6/3
f 241/6/3 235/6/3 240/6/3
f 243/2/3 236/2/3 228/2/3
f 244/2/3 236/2/3 243/2/3
f 245/4/3 239/4/3 238/4/3
f 246/5/3 240/5/3 239/5/3
f 246/4/3 239/4/3 245/4/3
f 247/6/3 241/6/3 240/6/3
f 247/5/3 240/5/3 246/5/3
f 247/6/3 242/6/3 241/6/3
f 248/6/3 242/6/3 247/6/3
f 249/6/3 242/6/3 248/6/3
f 251/2/3 245/2/3 244/2/3
f 252/2/3 245/2/3 251/2/3
f 253/4/3 247/4/3 246/4/3
f 254/5/3 248/5/3 247/5/3
f 254/4/3 247/4/3 253/4/3
f 255/6/3 250/6/3 249/6/3
f 255/5/3 248/5/3 254/5/3
f 255/6/3 249/6/3 248/6/3
f 256/6/3 250/6/3 255/6/3
f 257/6/3 250/6/3 256/6/3
f 259/4/3 255/4/3 254/4/3
f 260/5/3 256/5/3 255/5/3
f 260/4/3 255/4/3 259/4/3
f 261/6/3 258/6/3 257/6/3
f 261/5/3 256/5/3 260/5/3
f 261/6/3 257/6/3 256/6/3
f 262/6/3 258/6/3 261/6/3
f 263/6/3 258/6/3 262/6/3
f 265/4/3 261/4/3 260/4/3
f 266/5/3 262/5/3 261/5/3
f 266/4/3 261/4/3 265/4/3
f 267/6/3 264/6/3 263/6/3
f 267/5/3 262/5/3 266/5/3
f 267/6/3 263/6/3 262/6/3
f 268/6/3 264/6/3 267/6/3
f 269/4/3 267/4/3 266/4/3
f 270/5/3 268/5/3 267/5/3
f 270/4/3 267/4/3 269/4/3
f 271/6/3 264/6/3 268/6/3
f 271/5/3 268/5/3 270/5/3
f 272/6/3 264/6/3 271/6/3
f 273/4/3 271/4/3 270/4/3
f 273/4/3 272/4/3 271/4/3
f 274/4/3 272/4/3 273/4/3
f 275/3/4 276/3/4 277/3/4
f 277/3/4 276/3/4 278/3/4
f 278/3/4 276/3/4 279/3/4
f 277/2/4 278/2/4 282/2/4
f 278/7/4 279/7/4 282/7/4
f 279/3/4 276/3/4 283/3/4
f 282/7/4 279/7/4 283/7/4
f 283/3/4 276/3/4 284/3/4
f 280/3/4 281/3/4 286/3/4
f 286/3/4 281/3/4 287/3/4
f 277/2/4 282/2/4 289/2/4
f 282/2/4 283/2/4 289/2/4
f 289/2/4 283/2/4 290/2/4
f 284/3/4 285/3/4 291/3/4
f 291/3/4 285/3/4 292/3/4
f 280/3/4 286/3/4 293/3/4
f 293/3/4 286/3/4 294/3/4
f 290/2/4 291/2/4 295/2/4
f 295/2/4 291/2/4 296/2/4
f 292/3/4 293/3/4 297/3/4
f 297/3/4 293/3/4 298/3/4
f 287/3/4 288/3/4 300/3/4
f 300/3/4 288/3/4 301/3/4
f 296/2/4 297/2/4 304/2/4
f 304/2/4 297/2/4 305/2/4
f 299/6/4 300/6/4 307/6/4
f 307/6/4 300/6/4 308/6/4
f 302/2/4 303/2/4 310/2/4
f 303/3/4 304/3/4 310/3/4
f 310/3/4 304/3/4 311/3/4
f 308/6/4 309/6/4 313/6/4
f 307/6/4 308/6/4 313/6/4
f 306/6/4 307/6/4 313/6/4
f 313/6/4 309/6/4 314/6/4
f 314/6/4 309/6/4 315/6/4
f 302/2/4 310/2/4 317/2/4
f 317/2/4 310/2/4 318/2/4
f 312/4/4 313/4/4 320/4/4
f 313/5/4 314/5/4 321/5/4
f 320/4/4 313/4/4 321/4/4
f 314/6/4 315/6/4 322/6/4
f 321/5/4 314/5/4 322/5/4
f 315/6/4 316/6/4 322/6/4
f 322/6/4 316/6/4 323/6/4
f 323/6/4 316/6/4 324/6/4
f 319/2/4 320/2/4 326/2/4
f 318/2/4 319/2/4 326/2/4
f 326/2/4 320/2/4 327/2/4
f 321/4/4 322/4/4 328/4/4
f 322/5/4 323/5/4 329/5/4
f 328/4/4 322/4/4 329/4/4
f 324/6/4 325/6/4 330/6/4
f 329/5/4 323/5/4 330/5/4
f 323/6/4 324/6/4 330/6/4
f 330/6/4 325/6/4 331/6/4
f 331/6/4 325/6/4 332/6/4
f 329/4/4 330/4/4 334/4/4
f 330/5/4 331/5/4 335/5/4
f 334/4/4 330/4/4 335/4/4
f 332/6/4 333/6/4 336/6/4
f 335/5/4 331/5/4 336/5/4
f 331/6/4 332/6/4 336/6/4
f 336/6/4 333/6/4 337/6/4
f 337/6/4 333/6/4 338/6/4
f 335/4/4 336/4/4 340/4/4
f 336/5/4 337/5/4 341/5/4
f 340/4/4 336/4/4 341/4/4
f 338/6/4 339/6/4 342/6/4
f 341/5/4 337/5/4 342/5/4
f 337/6/4 338/6/4 342/6/4
f 342/6/4 339/6/4 343/6/4
f 341/4/4 342/4/4 344/4/4
f 342/5/4 343/5/4 345/5/4
f 344/4/4 342/4/4 345/4/4
f 343/6/4 339/6/4 346/6/4
f 345/5/4 343/5/4 346/5/4
f 346/6/4 339/6/4 347/6/4
f 345/4/4 346/4/4 348/4/4
f 346/4/4 347/4/4 348/4/4
f 348/4/4 347/4/4 349/4/4
f 350/3/4 351/3/4 354/3/4
f 354/3/4 351/3/4 355/3/4
f 352/3/4 353/3/4 358/3/4
f 355/3/4 356/3/4 359/3/4
f 359/3/4 356/3/4 360/3/4
f 357/3/4 358/3/4 361/3/4
f 358/3/4 353/3/4 362/3/4
f 361/3/4 358/3/4 362/3/4
f 362/3/4 353/3/4 363/3/4
f 360/3/4 361/3/4 365/3/4
f 361/3/4 362/3/4 365/3/4
f 365/3/4 362/3/4 366/3/4
f 366/3/4 362/3/4 367/3/4
f 364/3/4 365/3/4 369/3/4
f 365/3/4 366/3/4 369/3/4
f 369/3/4 366/3/4 370/3/4
f 370/3/4 366/3/4 371/3/4
f 368/2/4 369/2/4 372/2/4
f 369/1/4 370/1/4 373/1/4
f 372/2/4 369/2/4 373/2/4
f 373/1/4 370/1/4 374/1/4
f 378/3/5 376/3/5 375/3/5
f 379/2/5 377/2/5 376/2/5
f 379/3/5 376/3/5 378/3/5
f 380/2/5 377/2/5 379/2/5
f 383/2/5 382/2/5 381/2/5
f 384/2/5 382/2/5 383/2/5
f 389/3/5 386/3/5 385/3/5
f 390/3/5 386/3/5 389/3/5
f 392/2/5 388/2/5 387/2/5
f 393/2/5 388/2/5 392/2/5
f 396/2/5 391/2/5 390/2/5
f 397/2/5 391/2/5 396/2/5
f 399/2/5 394/2/5 393/2/5
f 400/2/5 394/2/5 399/2/5
f 401/3/5 396/3/5 395/3/5
f 402/3/5 396/3/5 401/3/5
f 403/2/5 399/2/5 398/2/5
f 404/2/5 399/2/5 403/2/5
f 409/3/5 406/3/5 405/3/5
f 410/3/5 406/3/5 409/3/5
f 411/3/5 408/3/5 407/3/5
f 412/3/5 408/3/5 411/3/5
f 414/2/5 411/2/5 410/2/5
f 415/2/5 411/2/5 414/2/5
f 417/3/5 414/3/5 413/3/5
f 418/3/5 414/3/5 417/3/5
f 419/3/5 416/3/5 415/3/5
f 420/3/5 416/3/5 419/3/5
f 423/3/5 422/3/5 421/3/5
f 424/3/5 422/3/5 423/3/5
f 427/3/5 426/3/5 425/3/5
f 428/3/5 426/3/5 427/3/5
f 432/3/5 430/3/5 429/3/5
f 433/3/5 430/3/5 432/3/5
f 436/3/5 432/3/5 431/3/5
f 437/3/5 432/3/5 436/3/5
f 439/4/5 435/4/5 434/4/5
f 440/4/5 435/4/5 439/4/5
f 441/3/5 438/3/5 437/3/5
f 442/3/5 438/3/5 441/3/5
f 445/3/5 444/3/5 443/3/5
f 446/3/5 444/3/5 445/3/5
f 451/4/5 448/4/5 447/4/5
f 452/4/5 448/4/5 451/4/5
f 453/3/5 450/3/5 449/3/5
f 454/3/5 450/3/5 453/3/5
f 457/4/5 456/4/5 455/4/5
f 458/4/5 456/4/5 457/4/5
f 461/4/5 460/4/5 459/4/5
f 462/4/5 460/4/5 461/4/5
f 465/4/5 464/4/5 463/4/5
f 466/4/5 464/4/5 465/4/5
f 467/3/6 468/3/6 470/3/6
f 470/3/6 468/3/6 471/3/6
f 469/3/6 470/3/6 472/3/6
f 472/3/6 470/3/6 473/3/6
f 473/3/6 474/3/6 475/3/6
f 475/3/6 474/3/6 476/3/6
f 477/3/6 478/3/6 482/3/6
f 482/3/6 478/3/6 483/3/6
f 479/2/6 480/2/6 484/2/6
f 484/2/6 480/2/6 485/2/6
f 481/3/6 482/3/6 487/3/6
f 487/3/6 482/3/6 488/3/6
f 485/2/6 486/2/6 491/2/6
f 491/2/6 486/2/6 492/2/6
f 488/3/6 489/3/6 493/3/6
f 493/3/6 489/3/6 494/3/6
f 490/1/6 491/1/6 495/1/6
f 495/1/6 491/1/6 496/1/6
f 497/3/6 498/3/6 499/3/6
f 499/3/6 498/3/6 500/3/6
f 501/3/6 502/3/6 503/3/6
f 503/3/6 502/3/6 504/3/6
f 505/3/6 506/3/6 507/3/6
f 507/3/6 506/3/6 508/3/6
f 509/3/6 510/3/6 511/3/6
f 511/3/6 510/3/6 512/3/6
f 513/3/6 514/3/6 516/3/6
f 516/3/6 514/3/6 517/3/6
f 515/3/6 516/3/6 519/3/6
f 519/3/6 516/3/6 520/3/6
f 517/6/6 518/6/6 521/6/6
f 521/6/6 518/6/6 522/6/6
f 520/3/6 521/3/6 523/3/6
f 523/3/6 521/3/6 524/3/6
f 525/3/6 526/3/6 529/3/6
f 529/3/6 526/3/6 530/3/6
f 527/6/6 528/6/6 531/6/6
f 531/6/6 528/6/6 532/6/6
f 533/6/6 534/6/6 535/6/6
f 535/6/6 534/6/6 536/6/6
f 537/6/6 538/6/6 539/6/6
f 539/6/6 538/6/6 540/6/6
f 541/6/6 542/6/6 543/6/6
f 543/6/6 542/6/6 544/6/6
f 545/6/6 546/6/6 548/6/6
f 546/4/6 547/4/6 549/4/6
f 548/6/6 546/6/6 549/6/6
f 549/4/6 547/4/6 550/4/6
