# MagicaVoxel @ Ephtracy

# material
mtllib bow.mtl
usemtl palette

# normals
vn -1 0 0
vn 1 0 0
vn 0 0 1
vn 0 0 -1
vn 0 -1 0
vn 0 1 0

# texcoords
vt 0.00195313 0.5
vt 0.927734 0.5

# verts
v -2 1 7
v -2 1 6
v -2 4 7
v -2 4 6
v -2 4 5
v -2 7 6
v -2 7 5
v -2 7 4
v -2 9 5
v -2 9 4
v -2 9 3
v -2 10 4
v -2 10 3
v -2 10 2
v -2 11 3
v -2 11 2
v -2 11 1
v -2 12 2
v -2 12 1
v -2 12 -1
v -2 13 1
v -2 13 -1
v -2 13 -4
v -2 14 -1
v -2 14 -4
v -2 14 -7
v -2 15 -4
v -2 15 -7
v -1 0 7
v -1 0 6
v -1 0 5
v -1 1 8
v -1 1 7
v -1 1 6
v -1 1 5
v -1 1 4
v -1 2 5
v -1 2 4
v -1 2 3
v -1 3 4
v -1 3 3
v -1 3 2
v -1 4 8
v -1 4 7
v -1 4 6
v -1 4 5
v -1 4 4
v -1 4 2
v -1 4 1
v -1 5 3
v -1 5 2
v -1 5 1
v -1 5 -0
v -1 6 2
v -1 6 1
v -1 6 -0
v -1 6 -1
v -1 7 7
v -1 7 6
v -1 7 5
v -1 7 4
v -1 7 3
v -1 7 1
v -1 7 -0
v -1 7 -1
v -1 7 -2
v -1 8 -0
v -1 8 -1
v -1 8 -2
v -1 8 -3
v -1 9 6
v -1 9 5
v -1 9 4
v -1 9 3
v -1 9 2
v -1 9 -1
v -1 9 -2
v -1 9 -3
v -1 9 -4
v -1 10 5
v -1 10 4
v -1 10 3
v -1 10 2
v -1 10 1
v -1 10 -2
v -1 10 -4
v -1 10 -6
v -1 11 4
v -1 11 3
v -1 11 2
v -1 11 1
v -1 11 -1
v -1 11 -4
v -1 11 -5
v -1 11 -6
v -1 11 -7
v -1 12 3
v -1 12 2
v -1 12 1
v -1 12 -1
v -1 12 -4
v -1 12 -5
v -1 12 -6
v -1 12 -7
v -1 12 -8
v -1 13 2
v -1 13 1
v -1 13 -1
v -1 13 -4
v -1 13 -6
v -1 13 -7
v -1 14 1
v -1 14 -1
v -1 14 -4
v -1 14 -7
v -1 14 -8
v -1 15 -1
v -1 15 -4
v -1 15 -7
v -1 15 -8
v -1 16 -4
v -1 16 -7
v 0 0 7
v 0 0 6
v 0 0 5
v 0 1 8
v 0 1 7
v 0 1 6
v 0 1 5
v 0 1 4
v 0 2 5
v 0 2 4
v 0 2 3
v 0 3 4
v 0 3 3
v 0 3 2
v 0 4 8
v 0 4 7
v 0 4 6
v 0 4 5
v 0 4 4
v 0 4 2
v 0 4 1
v 0 5 3
v 0 5 2
v 0 5 1
v 0 5 -0
v 0 6 2
v 0 6 1
v 0 6 -0
v 0 6 -1
v 0 7 7
v 0 7 6
v 0 7 5
v 0 7 4
v 0 7 3
v 0 7 1
v 0 7 -0
v 0 7 -1
v 0 7 -2
v 0 8 -0
v 0 8 -1
v 0 8 -2
v 0 8 -3
v 0 9 6
v 0 9 5
v 0 9 4
v 0 9 3
v 0 9 2
v 0 9 -1
v 0 9 -2
v 0 9 -3
v 0 9 -4
v 0 10 5
v 0 10 4
v 0 10 3
v 0 10 2
v 0 10 1
v 0 10 -2
v 0 10 -4
v 0 10 -6
v 0 11 4
v 0 11 3
v 0 11 2
v 0 11 1
v 0 11 -1
v 0 11 -4
v 0 11 -5
v 0 11 -6
v 0 11 -7
v 0 12 3
v 0 12 2
v 0 12 1
v 0 12 -1
v 0 12 -4
v 0 12 -5
v 0 12 -6
v 0 12 -7
v 0 12 -8
v 0 13 2
v 0 13 1
v 0 13 -1
v 0 13 -4
v 0 13 -6
v 0 13 -7
v 0 14 1
v 0 14 -1
v 0 14 -4
v 0 14 -7
v 0 14 -8
v 0 15 -1
v 0 15 -4
v 0 15 -7
v 0 15 -8
v 0 16 -4
v 0 16 -7
v 1 1 7
v 1 1 6
v 1 4 7
v 1 4 6
v 1 4 5
v 1 7 6
v 1 7 5
v 1 7 4
v 1 9 5
v 1 9 4
v 1 9 3
v 1 10 4
v 1 10 3
v 1 10 2
v 1 11 3
v 1 11 2
v 1 11 1
v 1 12 2
v 1 12 1
v 1 12 -1
v 1 13 1
v 1 13 -1
v 1 13 -4
v 1 14 -1
v 1 14 -4
v 1 14 -7
v 1 15 -4
v 1 15 -7
v -1 1 8
v -1 4 8
v 0 1 8
v 0 4 8
v -2 1 7
v -2 4 7
v -1 0 7
v -1 1 7
v -1 4 7
v -1 7 7
v 0 0 7
v 0 1 7
v 0 4 7
v 0 7 7
v 1 1 7
v 1 4 7
v -2 4 6
v -2 7 6
v -1 4 6
v -1 7 6
v -1 9 6
v 0 4 6
v 0 7 6
v 0 9 6
v 1 4 6
v 1 7 6
v -2 7 5
v -2 9 5
v -1 7 5
v -1 9 5
v -1 10 5
v 0 7 5
v 0 9 5
v 0 10 5
v 1 7 5
v 1 9 5
v -2 9 4
v -2 10 4
v -1 2 4
v -1 3 4
v -1 9 4
v -1 10 4
v -1 11 4
v 0 2 4
v 0 3 4
v 0 9 4
v 0 10 4
v 0 11 4
v 1 9 4
v 1 10 4
v -2 10 3
v -2 11 3
v -1 3 3
v -1 5 3
v -1 10 3
v -1 11 3
v -1 12 3
v 0 3 3
v 0 5 3
v 0 10 3
v 0 11 3
v 0 12 3
v 1 10 3
v 1 11 3
v -2 11 2
v -2 12 2
v -1 5 2
v -1 6 2
v -1 11 2
v -1 12 2
v -1 13 2
v 0 5 2
v 0 6 2
v 0 11 2
v 0 12 2
v 0 13 2
v 1 11 2
v 1 12 2
v -2 12 1
v -2 13 1
v -1 6 1
v -1 7 1
v -1 12 1
v -1 13 1
v -1 14 1
v 0 6 1
v 0 7 1
v 0 12 1
v 0 13 1
v 0 14 1
v 1 12 1
v 1 13 1
v -1 7 -0
v -1 8 -0
v 0 7 -0
v 0 8 -0
v -2 13 -1
v -2 14 -1
v -1 8 -1
v -1 9 -1
v -1 13 -1
v -1 14 -1
v -1 15 -1
v 0 8 -1
v 0 9 -1
v 0 13 -1
v 0 14 -1
v 0 15 -1
v 1 13 -1
v 1 14 -1
v -1 9 -2
v -1 10 -2
v 0 9 -2
v 0 10 -2
v -2 14 -4
v -2 15 -4
v -1 10 -4
v -1 11 -4
v -1 14 -4
v -1 15 -4
v -1 16 -4
v 0 10 -4
v 0 11 -4
v 0 14 -4
v 0 15 -4
v 0 16 -4
v 1 14 -4
v 1 15 -4
v -1 11 -5
v -1 12 -5
v 0 11 -5
v 0 12 -5
v -1 12 -6
v -1 13 -6
v 0 12 -6
v 0 13 -6
v -2 1 6
v -2 4 6
v -1 1 6
v -1 4 6
v 0 1 6
v 0 4 6
v 1 1 6
v 1 4 6
v -2 4 5
v -2 7 5
v -1 0 5
v -1 1 5
v -1 2 5
v -1 4 5
v -1 7 5
v 0 0 5
v 0 1 5
v 0 2 5
v 0 4 5
v 0 7 5
v 1 4 5
v 1 7 5
v -2 7 4
v -2 9 4
v -1 1 4
v -1 2 4
v -1 4 4
v -1 7 4
v -1 9 4
v 0 1 4
v 0 2 4
v 0 4 4
v 0 7 4
v 0 9 4
v 1 7 4
v 1 9 4
v -2 9 3
v -2 10 3
v -1 2 3
v -1 3 3
v -1 7 3
v -1 9 3
v -1 10 3
v 0 2 3
v 0 3 3
v 0 7 3
v 0 9 3
v 0 10 3
v 1 9 3
v 1 10 3
v -2 10 2
v -2 11 2
v -1 3 2
v -1 4 2
v -1 9 2
v -1 10 2
v -1 11 2
v 0 3 2
v 0 4 2
v 0 9 2
v 0 10 2
v 0 11 2
v 1 10 2
v 1 11 2
v -2 11 1
v -2 12 1
v -1 4 1
v -1 5 1
v -1 10 1
v -1 11 1
v -1 12 1
v 0 4 1
v 0 5 1
v 0 10 1
v 0 11 1
v 0 12 1
v 1 11 1
v 1 12 1
v -1 5 -0
v -1 6 -0
v 0 5 -0
v 0 6 -0
v -2 12 -1
v -2 13 -1
v -1 6 -1
v -1 7 -1
v -1 11 -1
v -1 12 -1
v -1 13 -1
v 0 6 -1
v 0 7 -1
v 0 11 -1
v 0 12 -1
v 0 13 -1
v 1 12 -1
v 1 13 -1
v -1 7 -2
v -1 8 -2
v 0 7 -2
v 0 8 -2
v -1 8 -3
v -1 9 -3
v 0 8 -3
v 0 9 -3
v -2 13 -4
v -2 14 -4
v -1 9 -4
v -1 10 -4
v -1 12 -4
v -1 13 -4
v -1 14 -4
v 0 9 -4
v 0 10 -4
v 0 12 -4
v 0 13 -4
v 0 14 -4
v 1 13 -4
v 1 14 -4
v -1 10 -6
v -1 11 -6
v 0 10 -6
v 0 11 -6
v -2 14 -7
v -2 15 -7
v -1 11 -7
v -1 12 -7
v -1 14 -7
v -1 15 -7
v -1 16 -7
v 0 11 -7
v 0 12 -7
v 0 14 -7
v 0 15 -7
v 0 16 -7
v 1 14 -7
v 1 15 -7
v -1 12 -8
v -1 14 -8
v -1 15 -8
v 0 12 -8
v 0 14 -8
v 0 15 -8
v -1 0 7
v 0 0 7
v -1 0 6
v 0 0 6
v -1 0 5
v 0 0 5
v -1 1 8
v 0 1 8
v -2 1 7
v -1 1 7
v 0 1 7
v 1 1 7
v -2 1 6
v -1 1 6
v 0 1 6
v 1 1 6
v -1 1 5
v 0 1 5
v -1 1 4
v 0 1 4
v -1 2 4
v 0 2 4
v -1 2 3
v 0 2 3
v -1 3 3
v 0 3 3
v -1 3 2
v 0 3 2
v -2 4 6
v -1 4 6
v 0 4 6
v 1 4 6
v -2 4 5
v -1 4 5
v 0 4 5
v 1 4 5
v -1 4 4
v 0 4 4
v -1 4 2
v 0 4 2
v -1 4 1
v 0 4 1
v -1 5 1
v 0 5 1
v -1 5 -0
v 0 5 -0
v -1 6 -0
v 0 6 -0
v -1 6 -1
v 0 6 -1
v -2 7 5
v -1 7 5
v 0 7 5
v 1 7 5
v -2 7 4
v -1 7 4
v 0 7 4
v 1 7 4
v -1 7 3
v 0 7 3
v -1 7 -1
v 0 7 -1
v -1 7 -2
v 0 7 -2
v -1 8 -2
v 0 8 -2
v -1 8 -3
v 0 8 -3
v -2 9 4
v -1 9 4
v 0 9 4
v 1 9 4
v -2 9 3
v -1 9 3
v 0 9 3
v 1 9 3
v -1 9 2
v 0 9 2
v -1 9 -3
v 0 9 -3
v -1 9 -4
v 0 9 -4
v -2 10 3
v -1 10 3
v 0 10 3
v 1 10 3
v -2 10 2
v -1 10 2
v 0 10 2
v 1 10 2
v -1 10 1
v 0 10 1
v -1 10 -4
v 0 10 -4
v -1 10 -6
v 0 10 -6
v -2 11 2
v -1 11 2
v 0 11 2
v 1 11 2
v -2 11 1
v -1 11 1
v 0 11 1
v 1 11 1
v -1 11 -1
v 0 11 -1
v -1 11 -6
v 0 11 -6
v -1 11 -7
v 0 11 -7
v -2 12 1
v -1 12 1
v 0 12 1
v 1 12 1
v -2 12 -1
v -1 12 -1
v 0 12 -1
v 1 12 -1
v -1 12 -4
v 0 12 -4
v -1 12 -7
v 0 12 -7
v -1 12 -8
v 0 12 -8
v -2 13 -1
v -1 13 -1
v 0 13 -1
v 1 13 -1
v -2 13 -4
v -1 13 -4
v 0 13 -4
v 1 13 -4
v -1 13 -6
v 0 13 -6
v -2 14 -4
v -1 14 -4
v 0 14 -4
v 1 14 -4
v -2 14 -7
v -1 14 -7
v 0 14 -7
v 1 14 -7
v -1 2 5
v 0 2 5
v -1 2 4
v 0 2 4
v -1 3 4
v 0 3 4
v -1 3 3
v 0 3 3
v -1 4 8
v 0 4 8
v -2 4 7
v -1 4 7
v 0 4 7
v 1 4 7
v -2 4 6
v -1 4 6
v 0 4 6
v 1 4 6
v -1 5 3
v 0 5 3
v -1 5 2
v 0 5 2
v -1 6 2
v 0 6 2
v -1 6 1
v 0 6 1
v -1 7 7
v 0 7 7
v -2 7 6
v -1 7 6
v 0 7 6
v 1 7 6
v -2 7 5
v -1 7 5
v 0 7 5
v 1 7 5
v -1 7 1
v 0 7 1
v -1 7 -0
v 0 7 -0
v -1 8 -0
v 0 8 -0
v -1 8 -1
v 0 8 -1
v -1 9 6
v 0 9 6
v -2 9 5
v -1 9 5
v 0 9 5
v 1 9 5
v -2 9 4
v -1 9 4
v 0 9 4
v 1 9 4
v -1 9 -1
v 0 9 -1
v -1 9 -2
v 0 9 -2
v -1 10 5
v 0 10 5
v -2 10 4
v -1 10 4
v 0 10 4
v 1 10 4
v -2 10 3
v -1 10 3
v 0 10 3
v 1 10 3
v -1 10 -2
v 0 10 -2
v -1 10 -4
v 0 10 -4
v -1 11 4
v 0 11 4
v -2 11 3
v -1 11 3
v 0 11 3
v 1 11 3
v -2 11 2
v -1 11 2
v 0 11 2
v 1 11 2
v -1 11 -4
v 0 11 -4
v -1 11 -5
v 0 11 -5
v -1 12 3
v 0 12 3
v -2 12 2
v -1 12 2
v 0 12 2
v 1 12 2
v -2 12 1
v -1 12 1
v 0 12 1
v 1 12 1
v -1 12 -5
v 0 12 -5
v -1 12 -6
v 0 12 -6
v -1 13 2
v 0 13 2
v -2 13 1
v -1 13 1
v 0 13 1
v 1 13 1
v -2 13 -1
v -1 13 -1
v 0 13 -1
v 1 13 -1
v -1 14 1
v 0 14 1
v -2 14 -1
v -1 14 -1
v 0 14 -1
v 1 14 -1
v -2 14 -4
v -1 14 -4
v 0 14 -4
v 1 14 -4
v -1 15 -1
v 0 15 -1
v -2 15 -4
v -1 15 -4
v 0 15 -4
v 1 15 -4
v -2 15 -7
v -1 15 -7
v 0 15 -7
v 1 15 -7
v -1 15 -8
v 0 15 -8
v -1 16 -4
v 0 16 -4
v -1 16 -7
v 0 16 -7

# faces
f 3/2/1 2/2/1 1/2/1
f 4/2/1 2/2/1 3/2/1
f 6/2/1 5/2/1 4/2/1
f 7/2/1 5/2/1 6/2/1
f 9/2/1 8/2/1 7/2/1
f 10/2/1 8/2/1 9/2/1
f 12/2/1 11/2/1 10/2/1
f 13/2/1 11/2/1 12/2/1
f 15/2/1 14/2/1 13/2/1
f 16/2/1 14/2/1 15/2/1
f 18/2/1 17/2/1 16/2/1
f 19/2/1 17/2/1 18/2/1
f 21/2/1 20/2/1 19/2/1
f 22/2/1 20/2/1 21/2/1
f 24/2/1 23/2/1 22/2/1
f 25/2/1 23/2/1 24/2/1
f 27/2/1 26/2/1 25/2/1
f 28/2/1 26/2/1 27/2/1
f 33/2/1 30/2/1 29/2/1
f 34/1/1 31/1/1 30/1/1
f 34/2/1 30/2/1 33/2/1
f 35/1/1 31/1/1 34/1/1
f 37/1/1 36/1/1 35/1/1
f 37/2/1 35/2/1 34/2/1
f 38/1/1 36/1/1 37/1/1
f 40/1/1 39/1/1 38/1/1
f 41/1/1 39/1/1 40/1/1
f 43/2/1 33/2/1 32/2/1
f 44/2/1 33/2/1 43/2/1
f 45/2/1 37/2/1 34/2/1
f 46/2/1 37/2/1 45/2/1
f 48/1/1 42/1/1 41/1/1
f 50/1/1 49/1/1 48/1/1
f 50/1/1 48/1/1 41/1/1
f 51/1/1 49/1/1 50/1/1
f 52/1/1 49/1/1 51/1/1
f 54/1/1 53/1/1 52/1/1
f 54/1/1 52/1/1 51/1/1
f 55/1/1 53/1/1 54/1/1
f 56/1/1 53/1/1 55/1/1
f 58/2/1 45/2/1 44/2/1
f 59/2/1 45/2/1 58/2/1
f 60/2/1 47/2/1 46/2/1
f 61/2/1 47/2/1 60/2/1
f 63/1/1 57/1/1 56/1/1
f 63/1/1 56/1/1 55/1/1
f 64/1/1 57/1/1 63/1/1
f 65/1/1 57/1/1 64/1/1
f 67/1/1 66/1/1 65/1/1
f 67/1/1 65/1/1 64/1/1
f 68/1/1 66/1/1 67/1/1
f 69/1/1 66/1/1 68/1/1
f 71/2/1 60/2/1 59/2/1
f 72/2/1 60/2/1 71/2/1
f 73/2/1 62/2/1 61/2/1
f 74/2/1 62/2/1 73/2/1
f 76/1/1 70/1/1 69/1/1
f 76/1/1 69/1/1 68/1/1
f 77/1/1 70/1/1 76/1/1
f 78/1/1 70/1/1 77/1/1
f 80/2/1 73/2/1 72/2/1
f 81/2/1 73/2/1 80/2/1
f 82/2/1 75/2/1 74/2/1
f 83/2/1 75/2/1 82/2/1
f 85/1/1 79/1/1 78/1/1
f 85/1/1 78/1/1 77/1/1
f 86/1/1 79/1/1 85/1/1
f 88/2/1 82/2/1 81/2/1
f 89/2/1 82/2/1 88/2/1
f 90/2/1 84/2/1 83/2/1
f 91/2/1 84/2/1 90/2/1
f 93/1/1 87/1/1 86/1/1
f 94/1/1 87/1/1 93/1/1
f 95/1/1 87/1/1 94/1/1
f 97/2/1 90/2/1 89/2/1
f 98/2/1 90/2/1 97/2/1
f 99/2/1 92/2/1 91/2/1
f 100/2/1 92/2/1 99/2/1
f 102/1/1 96/1/1 95/1/1
f 102/1/1 95/1/1 94/1/1
f 103/1/1 96/1/1 102/1/1
f 104/1/1 96/1/1 103/1/1
f 106/2/1 99/2/1 98/2/1
f 107/2/1 99/2/1 106/2/1
f 108/2/1 101/2/1 100/2/1
f 109/2/1 101/2/1 108/2/1
f 110/1/1 105/1/1 104/1/1
f 110/1/1 104/1/1 103/1/1
f 111/1/1 105/1/1 110/1/1
f 112/2/1 108/2/1 107/2/1
f 113/2/1 108/2/1 112/2/1
f 114/2/1 111/2/1 110/2/1
f 114/2/1 110/2/1 109/2/1
f 115/1/1 105/1/1 111/1/1
f 115/2/1 111/2/1 114/2/1
f 116/1/1 105/1/1 115/1/1
f 117/2/1 114/2/1 113/2/1
f 118/2/1 114/2/1 117/2/1
f 119/2/1 116/2/1 115/2/1
f 120/2/1 116/2/1 119/2/1
f 121/2/1 119/2/1 118/2/1
f 122/2/1 119/2/1 121/2/1
f 123/2/2 124/2/2 127/2/2
f 124/1/2 125/1/2 128/1/2
f 127/2/2 124/2/2 128/2/2
f 128/1/2 125/1/2 129/1/2
f 129/1/2 130/1/2 131/1/2
f 128/2/2 129/2/2 131/2/2
f 131/1/2 130/1/2 132/1/2
f 132/1/2 133/1/2 134/1/2
f 134/1/2 133/1/2 135/1/2
f 126/2/2 127/2/2 137/2/2
f 137/2/2 127/2/2 138/2/2
f 128/2/2 131/2/2 139/2/2
f 139/2/2 131/2/2 140/2/2
f 135/1/2 136/1/2 142/1/2
f 142/1/2 143/1/2 144/1/2
f 135/1/2 142/1/2 144/1/2
f 144/1/2 143/1/2 145/1/2
f 145/1/2 143/1/2 146/1/2
f 146/1/2 147/1/2 148/1/2
f 145/1/2 146/1/2 148/1/2
f 148/1/2 147/1/2 149/1/2
f 149/1/2 147/1/2 150/1/2
f 138/2/2 139/2/2 152/2/2
f 152/2/2 139/2/2 153/2/2
f 140/2/2 141/2/2 154/2/2
f 154/2/2 141/2/2 155/2/2
f 150/1/2 151/1/2 157/1/2
f 149/1/2 150/1/2 157/1/2
f 157/1/2 151/1/2 158/1/2
f 158/1/2 151/1/2 159/1/2
f 159/1/2 160/1/2 161/1/2
f 158/1/2 159/1/2 161/1/2
f 161/1/2 160/1/2 162/1/2
f 162/1/2 160/1/2 163/1/2
f 153/2/2 154/2/2 165/2/2
f 165/2/2 154/2/2 166/2/2
f 155/2/2 156/2/2 167/2/2
f 167/2/2 156/2/2 168/2/2
f 163/1/2 164/1/2 170/1/2
f 162/1/2 163/1/2 170/1/2
f 170/1/2 164/1/2 171/1/2
f 171/1/2 164/1/2 172/1/2
f 166/2/2 167/2/2 174/2/2
f 174/2/2 167/2/2 175/2/2
f 168/2/2 169/2/2 176/2/2
f 176/2/2 169/2/2 177/2/2
f 172/1/2 173/1/2 179/1/2
f 171/1/2 172/1/2 179/1/2
f 179/1/2 173/1/2 180/1/2
f 175/2/2 176/2/2 182/2/2
f 182/2/2 176/2/2 183/2/2
f 177/2/2 178/2/2 184/2/2
f 184/2/2 178/2/2 185/2/2
f 180/1/2 181/1/2 187/1/2
f 187/1/2 181/1/2 188/1/2
f 188/1/2 181/1/2 189/1/2
f 183/2/2 184/2/2 191/2/2
f 191/2/2 184/2/2 192/2/2
f 185/2/2 186/2/2 193/2/2
f 193/2/2 186/2/2 194/2/2
f 189/1/2 190/1/2 196/1/2
f 188/1/2 189/1/2 196/1/2
f 196/1/2 190/1/2 197/1/2
f 197/1/2 190/1/2 198/1/2
f 192/2/2 193/2/2 200/2/2
f 200/2/2 193/2/2 201/2/2
f 194/2/2 195/2/2 202/2/2
f 202/2/2 195/2/2 203/2/2
f 198/1/2 199/1/2 204/1/2
f 197/1/2 198/1/2 204/1/2
f 204/1/2 199/1/2 205/1/2
f 201/2/2 202/2/2 206/2/2
f 206/2/2 202/2/2 207/2/2
f 204/2/2 205/2/2 208/2/2
f 203/2/2 204/2/2 208/2/2
f 205/1/2 199/1/2 209/1/2
f 208/2/2 205/2/2 209/2/2
f 209/1/2 199/1/2 210/1/2
f 207/2/2 208/2/2 211/2/2
f 211/2/2 208/2/2 212/2/2
f 209/2/2 210/2/2 213/2/2
f 213/2/2 210/2/2 214/2/2
f 212/2/2 213/2/2 215/2/2
f 215/2/2 213/2/2 216/2/2
f 217/2/2 218/2/2 219/2/2
f 219/2/2 218/2/2 220/2/2
f 220/2/2 221/2/2 222/2/2
f 222/2/2 221/2/2 223/2/2
f 223/2/2 224/2/2 225/2/2
f 225/2/2 224/2/2 226/2/2
f 226/2/2 227/2/2 228/2/2
f 228/2/2 227/2/2 229/2/2
f 229/2/2 230/2/2 231/2/2
f 231/2/2 230/2/2 232/2/2
f 232/2/2 233/2/2 234/2/2
f 234/2/2 233/2/2 235/2/2
f 235/2/2 236/2/2 237/2/2
f 237/2/2 236/2/2 238/2/2
f 238/2/2 239/2/2 240/2/2
f 240/2/2 239/2/2 241/2/2
f 241/2/2 242/2/2 243/2/2
f 243/2/2 242/2/2 244/2/2
f 247/2/3 246/2/3 245/2/3
f 248/2/3 246/2/3 247/2/3
f 252/2/3 250/2/3 249/2/3
f 253/2/3 250/2/3 252/2/3
f 255/2/3 252/2/3 251/2/3
f 256/2/3 252/2/3 255/2/3
f 257/2/3 254/2/3 253/2/3
f 258/2/3 254/2/3 257/2/3
f 259/2/3 257/2/3 256/2/3
f 260/2/3 257/2/3 259/2/3
f 263/2/3 262/2/3 261/2/3
f 264/2/3 262/2/3 263/2/3
f 267/2/3 265/2/3 264/2/3
f 268/2/3 265/2/3 267/2/3
f 269/2/3 267/2/3 266/2/3
f 270/2/3 267/2/3 269/2/3
f 273/2/3 272/2/3 271/2/3
f 274/2/3 272/2/3 273/2/3
f 277/2/3 275/2/3 274/2/3
f 278/2/3 275/2/3 277/2/3
f 279/2/3 277/2/3 276/2/3
f 280/2/3 277/2/3 279/2/3
f 285/2/3 282/2/3 281/2/3
f 286/2/3 282/2/3 285/2/3
f 288/1/3 284/1/3 283/1/3
f 289/1/3 284/1/3 288/1/3
f 291/2/3 287/2/3 286/2/3
f 292/2/3 287/2/3 291/2/3
f 293/2/3 291/2/3 290/2/3
f 294/2/3 291/2/3 293/2/3
f 299/2/3 296/2/3 295/2/3
f 300/2/3 296/2/3 299/2/3
f 302/1/3 298/1/3 297/1/3
f 303/1/3 298/1/3 302/1/3
f 305/2/3 301/2/3 300/2/3
f 306/2/3 301/2/3 305/2/3
f 307/2/3 305/2/3 304/2/3
f 308/2/3 305/2/3 307/2/3
f 313/2/3 310/2/3 309/2/3
f 314/2/3 310/2/3 313/2/3
f 316/1/3 312/1/3 311/1/3
f 317/1/3 312/1/3 316/1/3
f 319/2/3 315/2/3 314/2/3
f 320/2/3 315/2/3 319/2/3
f 321/2/3 319/2/3 318/2/3
f 322/2/3 319/2/3 321/2/3
f 327/2/3 324/2/3 323/2/3
f 328/2/3 324/2/3 327/2/3
f 330/1/3 326/1/3 325/1/3
f 331/1/3 326/1/3 330/1/3
f 333/2/3 329/2/3 328/2/3
f 334/2/3 329/2/3 333/2/3
f 335/2/3 333/2/3 332/2/3
f 336/2/3 333/2/3 335/2/3
f 339/1/3 338/1/3 337/1/3
f 340/1/3 338/1/3 339/1/3
f 345/2/3 342/2/3 341/2/3
f 346/2/3 342/2/3 345/2/3
f 348/1/3 344/1/3 343/1/3
f 349/1/3 344/1/3 348/1/3
f 351/2/3 347/2/3 346/2/3
f 352/2/3 347/2/3 351/2/3
f 353/2/3 351/2/3 350/2/3
f 354/2/3 351/2/3 353/2/3
f 357/1/3 356/1/3 355/1/3
f 358/1/3 356/1/3 357/1/3
f 363/2/3 360/2/3 359/2/3
f 364/2/3 360/2/3 363/2/3
f 366/1/3 362/1/3 361/1/3
f 367/1/3 362/1/3 366/1/3
f 369/2/3 365/2/3 364/2/3
f 370/2/3 365/2/3 369/2/3
f 371/2/3 369/2/3 368/2/3
f 372/2/3 369/2/3 371/2/3
f 375/1/3 374/1/3 373/1/3
f 376/1/3 374/1/3 375/1/3
f 379/1/3 378/1/3 377/1/3
f 380/1/3 378/1/3 379/1/3
f 381/2/4 382/2/4 383/2/4
f 383/2/4 382/2/4 384/2/4
f 385/2/4 386/2/4 387/2/4
f 387/2/4 386/2/4 388/2/4
f 389/2/4 390/2/4 394/2/4
f 394/2/4 390/2/4 395/2/4
f 391/1/4 392/1/4 396/1/4
f 396/1/4 392/1/4 397/1/4
f 393/2/4 394/2/4 398/2/4
f 398/2/4 394/2/4 399/2/4
f 399/2/4 400/2/4 401/2/4
f 401/2/4 400/2/4 402/2/4
f 403/2/4 404/2/4 408/2/4
f 408/2/4 404/2/4 409/2/4
f 405/1/4 406/1/4 410/1/4
f 410/1/4 406/1/4 411/1/4
f 407/2/4 408/2/4 412/2/4
f 412/2/4 408/2/4 413/2/4
f 413/2/4 414/2/4 415/2/4
f 415/2/4 414/2/4 416/2/4
f 417/2/4 418/2/4 422/2/4
f 422/2/4 418/2/4 423/2/4
f 419/1/4 420/1/4 424/1/4
f 424/1/4 420/1/4 425/1/4
f 421/2/4 422/2/4 426/2/4
f 426/2/4 422/2/4 427/2/4
f 427/2/4 428/2/4 429/2/4
f 429/2/4 428/2/4 430/2/4
f 431/2/4 432/2/4 436/2/4
f 436/2/4 432/2/4 437/2/4
f 433/1/4 434/1/4 438/1/4
f 438/1/4 434/1/4 439/1/4
f 435/2/4 436/2/4 440/2/4
f 440/2/4 436/2/4 441/2/4
f 441/2/4 442/2/4 443/2/4
f 443/2/4 442/2/4 444/2/4
f 445/2/4 446/2/4 450/2/4
f 450/2/4 446/2/4 451/2/4
f 447/1/4 448/1/4 452/1/4
f 452/1/4 448/1/4 453/1/4
f 449/2/4 450/2/4 454/2/4
f 454/2/4 450/2/4 455/2/4
f 455/2/4 456/2/4 457/2/4
f 457/2/4 456/2/4 458/2/4
f 459/1/4 460/1/4 461/1/4
f 461/1/4 460/1/4 462/1/4
f 463/2/4 464/2/4 468/2/4
f 468/2/4 464/2/4 469/2/4
f 465/1/4 466/1/4 470/1/4
f 470/1/4 466/1/4 471/1/4
f 467/2/4 468/2/4 472/2/4
f 472/2/4 468/2/4 473/2/4
f 473/2/4 474/2/4 475/2/4
f 475/2/4 474/2/4 476/2/4
f 477/1/4 478/1/4 479/1/4
f 479/1/4 478/1/4 480/1/4
f 481/1/4 482/1/4 483/1/4
f 483/1/4 482/1/4 484/1/4
f 485/2/4 486/2/4 490/2/4
f 490/2/4 486/2/4 491/2/4
f 487/1/4 488/1/4 492/1/4
f 492/1/4 488/1/4 493/1/4
f 489/2/4 490/2/4 494/2/4
f 494/2/4 490/2/4 495/2/4
f 495/2/4 496/2/4 497/2/4
f 497/2/4 496/2/4 498/2/4
f 499/1/4 500/1/4 501/1/4
f 501/1/4 500/1/4 502/1/4
f 503/2/4 504/2/4 507/2/4
f 507/2/4 504/2/4 508/2/4
f 505/1/4 506/1/4 510/1/4
f 510/1/4 506/1/4 511/1/4
f 508/2/4 509/2/4 513/2/4
f 513/2/4 509/2/4 514/2/4
f 512/2/4 513/2/4 515/2/4
f 515/2/4 513/2/4 516/2/4
f 517/1/4 518/1/4 520/1/4
f 518/2/4 519/2/4 521/2/4
f 520/1/4 518/1/4 521/1/4
f 521/2/4 519/2/4 522/2/4
f 525/2/5 524/2/5 523/2/5
f 526/2/5 524/2/5 525/2/5
f 527/1/5 526/1/5 525/1/5
f 528/1/5 526/1/5 527/1/5
f 532/2/5 530/2/5 529/2/5
f 533/2/5 530/2/5 532/2/5
f 535/2/5 532/2/5 531/2/5
f 536/2/5 532/2/5 535/2/5
f 537/2/5 534/2/5 533/2/5
f 538/2/5 534/2/5 537/2/5
f 541/1/5 540/1/5 539/1/5
f 542/1/5 540/1/5 541/1/5
f 545/1/5 544/1/5 543/1/5
f 546/1/5 544/1/5 545/1/5
f 549/1/5 548/1/5 547/1/5
f 550/1/5 548/1/5 549/1/5
f 555/2/5 552/2/5 551/2/5
f 556/2/5 552/2/5 555/2/5
f 557/2/5 554/2/5 553/2/5
f 558/2/5 554/2/5 557/2/5
f 559/2/5 557/2/5 556/2/5
f 560/2/5 557/2/5 559/2/5
f 563/1/5 562/1/5 561/1/5
f 564/1/5 562/1/5 563/1/5
f 567/1/5 566/1/5 565/1/5
f 568/1/5 566/1/5 567/1/5
f 571/1/5 570/1/5 569/1/5
f 572/1/5 570/1/5 571/1/5
f 577/2/5 574/2/5 573/2/5
f 578/2/5 574/2/5 577/2/5
f 579/2/5 576/2/5 575/2/5
f 580/2/5 576/2/5 579/2/5
f 581/2/5 579/2/5 578/2/5
f 582/2/5 579/2/5 581/2/5
f 585/1/5 584/1/5 583/1/5
f 586/1/5 584/1/5 585/1/5
f 589/1/5 588/1/5 587/1/5
f 590/1/5 588/1/5 589/1/5
f 595/2/5 592/2/5 591/2/5
f 596/2/5 592/2/5 595/2/5
f 597/2/5 594/2/5 593/2/5
f 598/2/5 594/2/5 597/2/5
f 599/2/5 597/2/5 596/2/5
f 600/2/5 597/2/5 599/2/5
f 603/1/5 602/1/5 601/1/5
f 604/1/5 602/1/5 603/1/5
f 609/2/5 606/2/5 605/2/5
f 610/2/5 606/2/5 609/2/5
f 611/2/5 608/2/5 607/2/5
f 612/2/5 608/2/5 611/2/5
f 613/2/5 611/2/5 610/2/5
f 614/2/5 611/2/5 613/2/5
f 617/1/5 616/1/5 615/1/5
f 618/1/5 616/1/5 617/1/5
f 623/2/5 620/2/5 619/2/5
f 624/2/5 620/2/5 623/2/5
f 625/2/5 622/2/5 621/2/5
f 626/2/5 622/2/5 625/2/5
f 627/2/5 625/2/5 624/2/5
f 628/2/5 625/2/5 627/2/5
f 631/1/5 630/1/5 629/1/5
f 632/1/5 630/1/5 631/1/5
f 637/2/5 634/2/5 633/2/5
f 638/2/5 634/2/5 637/2/5
f 639/2/5 636/2/5 635/2/5
f 640/2/5 636/2/5 639/2/5
f 641/2/5 639/2/5 638/2/5
f 642/2/5 639/2/5 641/2/5
f 645/1/5 644/1/5 643/1/5
f 646/1/5 644/1/5 645/1/5
f 651/2/5 648/2/5 647/2/5
f 652/2/5 648/2/5 651/2/5
f 653/2/5 650/2/5 649/2/5
f 654/2/5 650/2/5 653/2/5
f 655/2/5 653/2/5 652/2/5
f 656/2/5 653/2/5 655/2/5
f 661/2/5 658/2/5 657/2/5
f 662/2/5 658/2/5 661/2/5
f 663/2/5 660/2/5 659/2/5
f 664/2/5 660/2/5 663/2/5
f 665/1/6 666/1/6 667/1/6
f 667/1/6 666/1/6 668/1/6
f 669/1/6 670/1/6 671/1/6
f 671/1/6 670/1/6 672/1/6
f 673/2/6 674/2/6 676/2/6
f 676/2/6 674/2/6 677/2/6
f 675/2/6 676/2/6 679/2/6
f 679/2/6 676/2/6 680/2/6
f 677/2/6 678/2/6 681/2/6
f 681/2/6 678/2/6 682/2/6
f 683/1/6 684/1/6 685/1/6
f 685/1/6 684/1/6 686/1/6
f 687/1/6 688/1/6 689/1/6
f 689/1/6 688/1/6 690/1/6
f 691/2/6 692/2/6 694/2/6
f 694/2/6 692/2/6 695/2/6
f 693/2/6 694/2/6 697/2/6
f 697/2/6 694/2/6 698/2/6
f 695/2/6 696/2/6 699/2/6
f 699/2/6 696/2/6 700/2/6
f 701/1/6 702/1/6 703/1/6
f 703/1/6 702/1/6 704/1/6
f 705/1/6 706/1/6 707/1/6
f 707/1/6 706/1/6 708/1/6
f 709/2/6 710/2/6 712/2/6
f 712/2/6 710/2/6 713/2/6
f 711/2/6 712/2/6 715/2/6
f 715/2/6 712/2/6 716/2/6
f 713/2/6 714/2/6 717/2/6
f 717/2/6 714/2/6 718/2/6
f 719/1/6 720/1/6 721/1/6
f 721/1/6 720/1/6 722/1/6
f 723/2/6 724/2/6 726/2/6
f 726/2/6 724/2/6 727/2/6
f 725/2/6 726/2/6 729/2/6
f 729/2/6 726/2/6 730/2/6
f 727/2/6 728/2/6 731/2/6
f 731/2/6 728/2/6 732/2/6
f 733/1/6 734/1/6 735/1/6
f 735/1/6 734/1/6 736/1/6
f 737/2/6 738/2/6 740/2/6
f 740/2/6 738/2/6 741/2/6
f 739/2/6 740/2/6 743/2/6
f 743/2/6 740/2/6 744/2/6
f 741/2/6 742/2/6 745/2/6
f 745/2/6 742/2/6 746/2/6
f 747/1/6 748/1/6 749/1/6
f 749/1/6 748/1/6 750/1/6
f 751/2/6 752/2/6 754/2/6
f 754/2/6 752/2/6 755/2/6
f 753/2/6 754/2/6 757/2/6
f 757/2/6 754/2/6 758/2/6
f 755/2/6 756/2/6 759/2/6
f 759/2/6 756/2/6 760/2/6
f 761/1/6 762/1/6 763/1/6
f 763/1/6 762/1/6 764/1/6
f 765/2/6 766/2/6 768/2/6
f 768/2/6 766/2/6 769/2/6
f 767/2/6 768/2/6 771/2/6
f 771/2/6 768/2/6 772/2/6
f 769/2/6 770/2/6 773/2/6
f 773/2/6 770/2/6 774/2/6
f 775/2/6 776/2/6 778/2/6
f 778/2/6 776/2/6 779/2/6
f 777/2/6 778/2/6 781/2/6
f 781/2/6 778/2/6 782/2/6
f 779/2/6 780/2/6 783/2/6
f 783/2/6 780/2/6 784/2/6
f 785/2/6 786/2/6 788/2/6
f 788/2/6 786/2/6 789/2/6
f 787/2/6 788/2/6 791/2/6
f 791/2/6 788/2/6 792/2/6
f 789/2/6 790/2/6 793/2/6
f 793/2/6 790/2/6 794/2/6
f 792/2/6 793/2/6 795/2/6
f 795/2/6 793/2/6 796/2/6
f 797/2/6 798/2/6 799/2/6
f 799/2/6 798/2/6 800/2/6
