# MagicaVoxel @ Ephtracy

# group
o 

# material
mtllib rat.mtl
usemtl palette

# normals
vn -1 0 0
vn 1 0 0
vn 0 0 1
vn 0 0 -1
vn 0 -1 0
vn 0 1 0

# texcoords
vt 0.0332031 0.5
vt 0.0371094 0.5
vt 0.0527344 0.5
vt 0.541016 0.5

# verts
v -0.09375 0 0.125
v -0.09375 0 -0.03125
v -0.09375 0.03125 0.125
v -0.09375 0.03125 0.0625
v -0.09375 0.0625 0.125
v -0.09375 0.0625 0.0625
v -0.09375 0.0625 0
v -0.09375 0.0625 -0.03125
v -0.09375 0.09375 0.0625
v -0.09375 0.09375 0
v -0.0625 0 0.1875
v -0.0625 0 0.125
v -0.0625 0 -0.03125
v -0.0625 0 -0.0625
v -0.0625 0.03125 0.125
v -0.0625 0.03125 -0.03125
v -0.0625 0.03125 -0.0625
v -0.0625 0.0625 0.1875
v -0.0625 0.0625 0.15625
v -0.0625 0.0625 0.125
v -0.0625 0.0625 0.0625
v -0.0625 0.0625 0
v -0.0625 0.0625 -0.03125
v -0.0625 0.0625 -0.0625
v -0.0625 0.09375 0.15625
v -0.0625 0.09375 0.125
v -0.0625 0.09375 0.0625
v -0.0625 0.09375 0.03125
v -0.0625 0.09375 0
v -0.0625 0.09375 -0.03125
v -0.0625 0.125 0.0625
v -0.0625 0.125 0.03125
v -0.0625 0.125 0
v -0.03125 0 0.21875
v -0.03125 0 0.1875
v -0.03125 0 -0.0625
v -0.03125 0 -0.09375
v -0.03125 0 -0.15625
v -0.03125 0.03125 0.21875
v -0.03125 0.03125 0.1875
v -0.03125 0.03125 -0.0625
v -0.03125 0.03125 -0.09375
v -0.03125 0.03125 -0.15625
v -0.03125 0.0625 0.21875
v -0.03125 0.0625 0.1875
v -0.03125 0.0625 -0.03125
v -0.03125 0.0625 -0.0625
v -0.03125 0.0625 -0.09375
v -0.03125 0.09375 0.09375
v -0.03125 0.09375 0.0625
v -0.03125 0.09375 0
v -0.03125 0.09375 -0.03125
v -0.03125 0.09375 -0.0625
v -0.03125 0.125 0.09375
v -0.03125 0.125 0.0625
v -0.03125 0.125 0
v -0.03125 0.125 -0.03125
v 0 0 -0.15625
v 0 0 -0.1875
v 0 0 -0.3125
v 0 0 -0.375
v 0 0.03125 -0.15625
v 0 0.03125 -0.1875
v 0 0.03125 -0.3125
v 0 0.03125 -0.375
v 0.03125 0 -0.1875
v 0.03125 0 -0.3125
v 0.03125 0.03125 -0.1875
v 0.03125 0.03125 -0.3125
v 0 0 -0.09375
v 0 0 -0.125
v 0 0.03125 -0.09375
v 0 0.03125 -0.125
v 0.03125 0 0.21875
v 0.03125 0 0.1875
v 0.03125 0 -0.0625
v 0.03125 0 -0.09375
v 0.03125 0 -0.125
v 0.03125 0 -0.1875
v 0.03125 0 -0.34375
v 0.03125 0 -0.375
v 0.03125 0.03125 0.21875
v 0.03125 0.03125 0.1875
v 0.03125 0.03125 -0.0625
v 0.03125 0.03125 -0.09375
v 0.03125 0.03125 -0.125
v 0.03125 0.03125 -0.1875
v 0.03125 0.03125 -0.34375
v 0.03125 0.03125 -0.375
v 0.03125 0.0625 0.21875
v 0.03125 0.0625 0.1875
v 0.03125 0.0625 -0.03125
v 0.03125 0.0625 -0.0625
v 0.03125 0.0625 -0.09375
v 0.03125 0.09375 0.09375
v 0.03125 0.09375 0.0625
v 0.03125 0.09375 0
v 0.03125 0.09375 -0.03125
v 0.03125 0.09375 -0.0625
v 0.03125 0.125 0.09375
v 0.03125 0.125 0.0625
v 0.03125 0.125 0
v 0.03125 0.125 -0.03125
v 0.0625 0 0.1875
v 0.0625 0 0.125
v 0.0625 0 -0.03125
v 0.0625 0 -0.0625
v 0.0625 0 -0.1875
v 0.0625 0 -0.34375
v 0.0625 0.03125 0.125
v 0.0625 0.03125 -0.03125
v 0.0625 0.03125 -0.0625
v 0.0625 0.03125 -0.1875
v 0.0625 0.03125 -0.34375
v 0.0625 0.0625 0.1875
v 0.0625 0.0625 0.15625
v 0.0625 0.0625 0.125
v 0.0625 0.0625 0.0625
v 0.0625 0.0625 0
v 0.0625 0.0625 -0.03125
v 0.0625 0.0625 -0.0625
v 0.0625 0.09375 0.15625
v 0.0625 0.09375 0.125
v 0.0625 0.09375 0.0625
v 0.0625 0.09375 0.03125
v 0.0625 0.09375 0
v 0.0625 0.09375 -0.03125
v 0.0625 0.125 0.0625
v 0.0625 0.125 0.03125
v 0.0625 0.125 0
v 0.09375 0 0.125
v 0.09375 0 -0.03125
v 0.09375 0.03125 0.125
v 0.09375 0.03125 0.0625
v 0.09375 0.0625 0.125
v 0.09375 0.0625 0.0625
v 0.09375 0.0625 0
v 0.09375 0.0625 -0.03125
v 0.09375 0.09375 0.0625
v 0.09375 0.09375 0
v -0.03125 0 0.21875
v -0.03125 0.03125 0.21875
v -0.03125 0.0625 0.21875
v 0.03125 0 0.21875
v 0.03125 0.03125 0.21875
v 0.03125 0.0625 0.21875
v -0.0625 0 0.1875
v -0.0625 0.0625 0.1875
v -0.03125 0 0.1875
v -0.03125 0.03125 0.1875
v -0.03125 0.0625 0.1875
v 0.03125 0 0.1875
v 0.03125 0.03125 0.1875
v 0.03125 0.0625 0.1875
v 0.0625 0 0.1875
v 0.0625 0.0625 0.1875
v -0.0625 0.0625 0.15625
v -0.0625 0.09375 0.15625
v -0.03125 0.0625 0.15625
v -0.03125 0.09375 0.15625
v 0.03125 0.0625 0.15625
v 0.03125 0.09375 0.15625
v 0.0625 0.0625 0.15625
v 0.0625 0.09375 0.15625
v -0.09375 0 0.125
v -0.09375 0.03125 0.125
v -0.09375 0.0625 0.125
v -0.0625 0 0.125
v -0.0625 0.03125 0.125
v -0.0625 0.0625 0.125
v 0.0625 0 0.125
v 0.0625 0.03125 0.125
v 0.0625 0.0625 0.125
v 0.09375 0 0.125
v 0.09375 0.03125 0.125
v 0.09375 0.0625 0.125
v -0.03125 0.09375 0.09375
v -0.03125 0.125 0.09375
v 0.03125 0.09375 0.09375
v 0.03125 0.125 0.09375
v -0.09375 0.0625 0.0625
v -0.09375 0.09375 0.0625
v -0.0625 0.0625 0.0625
v -0.0625 0.09375 0.0625
v -0.0625 0.125 0.0625
v -0.03125 0.09375 0.0625
v -0.03125 0.125 0.0625
v 0.03125 0.09375 0.0625
v 0.03125 0.125 0.0625
v 0.0625 0.0625 0.0625
v 0.0625 0.09375 0.0625
v 0.0625 0.125 0.0625
v 0.09375 0.0625 0.0625
v 0.09375 0.09375 0.0625
v 0 0 -0.125
v 0 0.03125 -0.125
v 0.03125 0 -0.125
v 0.03125 0.03125 -0.125
v 0.03125 0 -0.1875
v 0.03125 0.03125 -0.1875
v 0.0625 0 -0.1875
v 0.0625 0.03125 -0.1875
v 0 0 -0.3125
v 0 0.03125 -0.3125
v 0.03125 0 -0.3125
v 0.03125 0.03125 -0.3125
v -0.09375 0.0625 0
v -0.09375 0.09375 0
v -0.0625 0.0625 0
v -0.0625 0.09375 0
v -0.0625 0.125 0
v -0.03125 0.09375 0
v -0.03125 0.125 0
v 0.03125 0.09375 0
v 0.03125 0.125 0
v 0.0625 0.0625 0
v 0.0625 0.09375 0
v 0.0625 0.125 0
v 0.09375 0.0625 0
v 0.09375 0.09375 0
v -0.09375 0 -0.03125
v -0.09375 0.0625 -0.03125
v -0.0625 0 -0.03125
v -0.0625 0.03125 -0.03125
v -0.0625 0.0625 -0.03125
v -0.0625 0.09375 -0.03125
v -0.03125 0.0625 -0.03125
v -0.03125 0.09375 -0.03125
v -0.03125 0.125 -0.03125
v 0.03125 0.0625 -0.03125
v 0.03125 0.09375 -0.03125
v 0.03125 0.125 -0.03125
v 0.0625 0 -0.03125
v 0.0625 0.03125 -0.03125
v 0.0625 0.0625 -0.03125
v 0.0625 0.09375 -0.03125
v 0.09375 0 -0.03125
v 0.09375 0.0625 -0.03125
v -0.0625 0 -0.0625
v -0.0625 0.03125 -0.0625
v -0.0625 0.0625 -0.0625
v -0.03125 0 -0.0625
v -0.03125 0.03125 -0.0625
v -0.03125 0.0625 -0.0625
v -0.03125 0.09375 -0.0625
v 0.03125 0 -0.0625
v 0.03125 0.03125 -0.0625
v 0.03125 0.0625 -0.0625
v 0.03125 0.09375 -0.0625
v 0.0625 0 -0.0625
v 0.0625 0.03125 -0.0625
v 0.0625 0.0625 -0.0625
v -0.03125 0.03125 -0.09375
v -0.03125 0.0625 -0.09375
v 0 0 -0.09375
v 0 0.03125 -0.09375
v 0.03125 0 -0.09375
v 0.03125 0.03125 -0.09375
v 0.03125 0.0625 -0.09375
v -0.03125 0 -0.15625
v -0.03125 0.03125 -0.15625
v 0 0 -0.15625
v 0 0.03125 -0.15625
v 0 0 -0.1875
v 0 0.03125 -0.1875
v 0.03125 0 -0.1875
v 0.03125 0.03125 -0.1875
v 0.03125 0 -0.34375
v 0.03125 0.03125 -0.34375
v 0.0625 0 -0.34375
v 0.0625 0.03125 -0.34375
v 0 0 -0.375
v 0 0.03125 -0.375
v 0.03125 0 -0.375
v 0.03125 0.03125 -0.375
v -0.03125 0 0.21875
v 0.03125 0 0.21875
v -0.0625 0 0.1875
v -0.03125 0 0.1875
v 0.03125 0 0.1875
v 0.0625 0 0.1875
v -0.09375 0 0.125
v -0.0625 0 0.125
v 0.0625 0 0.125
v 0.09375 0 0.125
v -0.09375 0 -0.03125
v -0.0625 0 -0.03125
v 0.0625 0 -0.03125
v 0.09375 0 -0.03125
v -0.0625 0 -0.0625
v -0.03125 0 -0.0625
v 0.03125 0 -0.0625
v 0.0625 0 -0.0625
v -0.03125 0 -0.09375
v 0 0 -0.09375
v 0.03125 0 -0.09375
v 0 0 -0.125
v 0.03125 0 -0.125
v -0.03125 0 -0.15625
v 0 0 -0.15625
v 0 0 -0.1875
v 0.03125 0 -0.1875
v 0.0625 0 -0.1875
v 0 0 -0.3125
v 0.03125 0 -0.3125
v 0.03125 0 -0.34375
v 0.0625 0 -0.34375
v 0 0 -0.375
v 0.03125 0 -0.375
v -0.03125 0.03125 -0.09375
v 0 0.03125 -0.09375
v 0 0.03125 -0.125
v 0.03125 0.03125 -0.125
v -0.03125 0.03125 -0.15625
v 0 0.03125 -0.15625
v 0 0.03125 -0.1875
v 0.03125 0.03125 -0.1875
v 0.0625 0.03125 -0.1875
v 0 0.03125 -0.3125
v 0.03125 0.03125 -0.3125
v 0.03125 0.03125 -0.34375
v 0.0625 0.03125 -0.34375
v 0 0.03125 -0.375
v 0.03125 0.03125 -0.375
v -0.03125 0.0625 0.21875
v 0.03125 0.0625 0.21875
v -0.0625 0.0625 0.1875
v -0.03125 0.0625 0.1875
v 0.03125 0.0625 0.1875
v 0.0625 0.0625 0.1875
v -0.0625 0.0625 0.15625
v -0.03125 0.0625 0.15625
v 0.03125 0.0625 0.15625
v 0.0625 0.0625 0.15625
v -0.09375 0.0625 0.125
v -0.0625 0.0625 0.125
v 0.0625 0.0625 0.125
v 0.09375 0.0625 0.125
v -0.09375 0.0625 0.0625
v -0.0625 0.0625 0.0625
v 0.0625 0.0625 0.0625
v 0.09375 0.0625 0.0625
v -0.09375 0.0625 0
v -0.0625 0.0625 0
v 0.0625 0.0625 0
v 0.09375 0.0625 0
v -0.09375 0.0625 -0.03125
v -0.0625 0.0625 -0.03125
v -0.03125 0.0625 -0.03125
v 0.03125 0.0625 -0.03125
v 0.0625 0.0625 -0.03125
v 0.09375 0.0625 -0.03125
v -0.0625 0.0625 -0.0625
v -0.03125 0.0625 -0.0625
v 0.03125 0.0625 -0.0625
v 0.0625 0.0625 -0.0625
v -0.03125 0.0625 -0.09375
v 0.03125 0.0625 -0.09375
v -0.0625 0.09375 0.15625
v -0.03125 0.09375 0.15625
v 0.03125 0.09375 0.15625
v 0.0625 0.09375 0.15625
v -0.0625 0.09375 0.125
v -0.03125 0.09375 0.125
v 0.03125 0.09375 0.125
v 0.0625 0.09375 0.125
v -0.03125 0.09375 0.09375
v 0.03125 0.09375 0.09375
v -0.09375 0.09375 0.0625
v -0.0625 0.09375 0.0625
v -0.03125 0.09375 0.0625
v 0.03125 0.09375 0.0625
v 0.0625 0.09375 0.0625
v 0.09375 0.09375 0.0625
v -0.0625 0.09375 0.03125
v 0.0625 0.09375 0.03125
v -0.09375 0.09375 0
v -0.0625 0.09375 0
v -0.03125 0.09375 0
v 0.03125 0.09375 0
v 0.0625 0.09375 0
v 0.09375 0.09375 0
v -0.0625 0.09375 -0.03125
v -0.03125 0.09375 -0.03125
v 0.03125 0.09375 -0.03125
v 0.0625 0.09375 -0.03125
v -0.03125 0.09375 -0.0625
v 0.03125 0.09375 -0.0625
v -0.03125 0.125 0.09375
v 0.03125 0.125 0.09375
v -0.0625 0.125 0.0625
v -0.03125 0.125 0.0625
v 0.03125 0.125 0.0625
v 0.0625 0.125 0.0625
v -0.0625 0.125 0.03125
v -0.03125 0.125 0.03125
v 0.03125 0.125 0.03125
v 0.0625 0.125 0.03125
v -0.0625 0.125 0
v -0.03125 0.125 0
v 0.03125 0.125 0
v 0.0625 0.125 0
v -0.03125 0.125 -0.03125
v 0.03125 0.125 -0.03125

# faces
f 3/1/1 2/1/1 1/1/1
f 4/1/1 2/1/1 3/1/1
f 5/2/1 4/2/1 3/2/1
f 6/1/1 2/1/1 4/1/1
f 6/2/1 4/2/1 5/2/1
f 7/1/1 2/1/1 6/1/1
f 8/1/1 2/1/1 7/1/1
f 9/2/1 7/2/1 6/2/1
f 10/2/1 7/2/1 9/2/1
f 15/1/1 12/1/1 11/1/1
f 16/1/1 14/1/1 13/1/1
f 17/1/1 14/1/1 16/1/1
f 18/1/1 15/1/1 11/1/1
f 19/1/1 15/1/1 18/1/1
f 20/1/1 15/1/1 19/1/1
f 23/2/1 17/2/1 16/2/1
f 24/2/1 17/2/1 23/2/1
f 25/3/1 20/3/1 19/3/1
f 26/1/1 21/1/1 20/1/1
f 26/3/1 20/3/1 25/3/1
f 27/1/1 21/1/1 26/1/1
f 29/2/1 23/2/1 22/2/1
f 30/2/1 23/2/1 29/2/1
f 31/1/1 28/1/1 27/1/1
f 32/2/1 29/2/1 28/2/1
f 32/1/1 28/1/1 31/1/1
f 33/2/1 29/2/1 32/2/1
f 39/1/1 35/1/1 34/1/1
f 40/1/1 35/1/1 39/1/1
f 41/1/1 37/1/1 36/1/1
f 42/4/1 38/4/1 37/4/1
f 42/1/1 37/1/1 41/1/1
f 43/4/1 38/4/1 42/4/1
f 44/2/1 40/2/1 39/2/1
f 45/2/1 40/2/1 44/2/1
f 47/2/1 42/2/1 41/2/1
f 48/2/1 42/2/1 47/2/1
f 52/2/1 47/2/1 46/2/1
f 53/2/1 47/2/1 52/2/1
f 54/1/1 50/1/1 49/1/1
f 55/1/1 50/1/1 54/1/1
f 56/2/1 52/2/1 51/2/1
f 57/2/1 52/2/1 56/2/1
f 62/4/1 59/4/1 58/4/1
f 63/4/1 59/4/1 62/4/1
f 64/4/1 61/4/1 60/4/1
f 65/4/1 61/4/1 64/4/1
f 68/4/1 67/4/1 66/4/1
f 69/4/1 67/4/1 68/4/1
f 70/4/2 71/4/2 72/4/2
f 72/4/2 71/4/2 73/4/2
f 74/1/2 75/1/2 82/1/2
f 82/1/2 75/1/2 83/1/2
f 76/1/2 77/1/2 84/1/2
f 84/1/2 77/1/2 85/1/2
f 78/4/2 79/4/2 86/4/2
f 86/4/2 79/4/2 87/4/2
f 80/4/2 81/4/2 88/4/2
f 88/4/2 81/4/2 89/4/2
f 82/2/2 83/2/2 90/2/2
f 90/2/2 83/2/2 91/2/2
f 84/2/2 85/2/2 93/2/2
f 93/2/2 85/2/2 94/2/2
f 92/2/2 93/2/2 98/2/2
f 98/2/2 93/2/2 99/2/2
f 95/1/2 96/1/2 100/1/2
f 100/1/2 96/1/2 101/1/2
f 97/2/2 98/2/2 102/2/2
f 102/2/2 98/2/2 103/2/2
f 104/1/2 105/1/2 110/1/2
f 106/1/2 107/1/2 111/1/2
f 111/1/2 107/1/2 112/1/2
f 108/4/2 109/4/2 113/4/2
f 113/4/2 109/4/2 114/4/2
f 104/1/2 110/1/2 115/1/2
f 115/1/2 110/1/2 116/1/2
f 116/1/2 110/1/2 117/1/2
f 111/2/2 112/2/2 120/2/2
f 120/2/2 112/2/2 121/2/2
f 116/3/2 117/3/2 122/3/2
f 117/1/2 118/1/2 123/1/2
f 122/3/2 117/3/2 123/3/2
f 123/1/2 118/1/2 124/1/2
f 119/2/2 120/2/2 126/2/2
f 126/2/2 120/2/2 127/2/2
f 124/1/2 125/1/2 128/1/2
f 125/2/2 126/2/2 129/2/2
f 128/1/2 125/1/2 129/1/2
f 129/2/2 126/2/2 130/2/2
f 131/1/2 132/1/2 133/1/2
f 133/1/2 132/1/2 134/1/2
f 133/2/2 134/2/2 135/2/2
f 134/1/2 132/1/2 136/1/2
f 135/2/2 134/2/2 136/2/2
f 136/1/2 132/1/2 137/1/2
f 137/1/2 132/1/2 138/1/2
f 136/2/2 137/2/2 139/2/2
f 139/2/2 137/2/2 140/2/2
f 144/1/3 142/1/3 141/1/3
f 145/2/3 143/2/3 142/2/3
f 145/1/3 142/1/3 144/1/3
f 146/2/3 143/2/3 145/2/3
f 149/1/3 148/1/3 147/1/3
f 150/1/3 148/1/3 149/1/3
f 151/1/3 148/1/3 150/1/3
f 155/1/3 153/1/3 152/1/3
f 155/1/3 154/1/3 153/1/3
f 156/1/3 154/1/3 155/1/3
f 159/3/3 158/3/3 157/3/3
f 160/3/3 158/3/3 159/3/3
f 161/2/3 160/2/3 159/2/3
f 162/2/3 160/2/3 161/2/3
f 163/3/3 162/3/3 161/3/3
f 164/3/3 162/3/3 163/3/3
f 168/1/3 166/1/3 165/1/3
f 169/2/3 167/2/3 166/2/3
f 169/1/3 166/1/3 168/1/3
f 170/2/3 167/2/3 169/2/3
f 174/1/3 172/1/3 171/1/3
f 175/2/3 173/2/3 172/2/3
f 175/1/3 172/1/3 174/1/3
f 176/2/3 173/2/3 175/2/3
f 179/1/3 178/1/3 177/1/3
f 180/1/3 178/1/3 179/1/3
f 183/2/3 182/2/3 181/2/3
f 184/2/3 182/2/3 183/2/3
f 186/1/3 185/1/3 184/1/3
f 187/1/3 185/1/3 186/1/3
f 191/1/3 189/1/3 188/1/3
f 192/1/3 189/1/3 191/1/3
f 193/2/3 191/2/3 190/2/3
f 194/2/3 191/2/3 193/2/3
f 197/4/3 196/4/3 195/4/3
f 198/4/3 196/4/3 197/4/3
f 201/4/3 200/4/3 199/4/3
f 202/4/3 200/4/3 201/4/3
f 205/4/3 204/4/3 203/4/3
f 206/4/3 204/4/3 205/4/3
f 207/2/4 208/2/4 209/2/4
f 209/2/4 208/2/4 210/2/4
f 210/2/4 211/2/4 212/2/4
f 212/2/4 211/2/4 213/2/4
f 214/2/4 215/2/4 217/2/4
f 217/2/4 215/2/4 218/2/4
f 216/2/4 217/2/4 219/2/4
f 219/2/4 217/2/4 220/2/4
f 221/1/4 222/1/4 223/1/4
f 223/1/4 222/1/4 224/1/4
f 224/1/4 222/1/4 225/1/4
f 225/2/4 226/2/4 227/2/4
f 227/2/4 226/2/4 228/2/4
f 228/2/4 229/2/4 231/2/4
f 231/2/4 229/2/4 232/2/4
f 230/2/4 231/2/4 235/2/4
f 235/2/4 231/2/4 236/2/4
f 233/1/4 234/1/4 237/1/4
f 234/1/4 235/1/4 237/1/4
f 237/1/4 235/1/4 238/1/4
f 239/1/4 240/1/4 242/1/4
f 240/2/4 241/2/4 243/2/4
f 242/1/4 240/1/4 243/1/4
f 243/2/4 241/2/4 244/2/4
f 244/2/4 245/2/4 248/2/4
f 248/2/4 245/2/4 249/2/4
f 246/1/4 247/1/4 250/1/4
f 247/2/4 248/2/4 251/2/4
f 250/1/4 247/1/4 251/1/4
f 251/2/4 248/2/4 252/2/4
f 253/2/4 254/2/4 256/2/4
f 255/1/4 256/1/4 257/1/4
f 256/2/4 254/2/4 258/2/4
f 257/1/4 256/1/4 258/1/4
f 258/2/4 254/2/4 259/2/4
f 260/4/4 261/4/4 262/4/4
f 262/4/4 261/4/4 263/4/4
f 264/4/4 265/4/4 266/4/4
f 266/4/4 265/4/4 267/4/4
f 268/4/4 269/4/4 270/4/4
f 270/4/4 269/4/4 271/4/4
f 272/4/4 273/4/4 274/4/4
f 274/4/4 273/4/4 275/4/4
f 279/1/5 277/1/5 276/1/5
f 280/1/5 277/1/5 279/1/5
f 283/1/5 279/1/5 278/1/5
f 283/1/5 281/1/5 280/1/5
f 283/1/5 280/1/5 279/1/5
f 284/1/5 281/1/5 283/1/5
f 286/1/5 283/1/5 282/1/5
f 286/1/5 285/1/5 284/1/5
f 286/1/5 284/1/5 283/1/5
f 287/1/5 285/1/5 286/1/5
f 288/1/5 285/1/5 287/1/5
f 289/1/5 285/1/5 288/1/5
f 290/1/5 288/1/5 287/1/5
f 291/1/5 288/1/5 290/1/5
f 292/1/5 288/1/5 291/1/5
f 293/1/5 288/1/5 292/1/5
f 294/1/5 292/1/5 291/1/5
f 295/1/5 292/1/5 294/1/5
f 296/1/5 292/1/5 295/1/5
f 297/4/5 295/4/5 294/4/5
f 299/4/5 297/4/5 294/4/5
f 299/4/5 298/4/5 297/4/5
f 300/4/5 298/4/5 299/4/5
f 301/4/5 298/4/5 300/4/5
f 302/4/5 298/4/5 301/4/5
f 305/4/5 303/4/5 302/4/5
f 306/4/5 303/4/5 305/4/5
f 306/4/5 305/4/5 304/4/5
f 307/4/5 303/4/5 306/4/5
f 308/4/5 306/4/5 304/4/5
f 309/4/5 306/4/5 308/4/5
f 310/4/6 311/4/6 312/4/6
f 310/4/6 312/4/6 314/4/6
f 312/4/6 313/4/6 314/4/6
f 314/4/6 313/4/6 315/4/6
f 315/4/6 313/4/6 316/4/6
f 316/4/6 313/4/6 317/4/6
f 317/4/6 318/4/6 320/4/6
f 320/4/6 318/4/6 321/4/6
f 319/4/6 320/4/6 321/4/6
f 321/4/6 318/4/6 322/4/6
f 319/4/6 321/4/6 323/4/6
f 323/4/6 321/4/6 324/4/6
f 325/2/6 326/2/6 328/2/6
f 328/2/6 326/2/6 329/2/6
f 327/1/6 328/1/6 331/1/6
f 329/1/6 330/1/6 331/1/6
f 328/1/6 329/1/6 331/1/6
f 331/1/6 330/1/6 332/1/6
f 332/1/6 330/1/6 333/1/6
f 333/1/6 330/1/6 334/1/6
f 335/2/6 336/2/6 339/2/6
f 339/2/6 336/2/6 340/2/6
f 337/2/6 338/2/6 341/2/6
f 341/2/6 338/2/6 342/2/6
f 343/1/6 344/1/6 347/1/6
f 347/1/6 344/1/6 348/1/6
f 345/1/6 346/1/6 351/1/6
f 351/1/6 346/1/6 352/1/6
f 348/2/6 349/2/6 353/2/6
f 353/2/6 349/2/6 354/2/6
f 350/2/6 351/2/6 355/2/6
f 355/2/6 351/2/6 356/2/6
f 354/2/6 355/2/6 357/2/6
f 357/2/6 355/2/6 358/2/6
f 359/3/6 360/3/6 363/3/6
f 360/2/6 361/2/6 364/2/6
f 363/3/6 360/3/6 364/3/6
f 361/3/6 362/3/6 365/3/6
f 364/2/6 361/2/6 365/2/6
f 365/3/6 362/3/6 366/3/6
f 363/1/6 364/1/6 367/1/6
f 364/1/6 365/1/6 367/1/6
f 365/1/6 366/1/6 367/1/6
f 367/1/6 366/1/6 368/1/6
f 363/1/6 367/1/6 370/1/6
f 370/1/6 367/1/6 371/1/6
f 368/1/6 366/1/6 372/1/6
f 372/1/6 366/1/6 373/1/6
f 369/2/6 370/2/6 375/2/6
f 373/2/6 374/2/6 376/2/6
f 369/2/6 375/2/6 377/2/6
f 377/2/6 375/2/6 378/2/6
f 376/2/6 374/2/6 381/2/6
f 381/2/6 374/2/6 382/2/6
f 378/2/6 379/2/6 383/2/6
f 383/2/6 379/2/6 384/2/6
f 380/2/6 381/2/6 385/2/6
f 385/2/6 381/2/6 386/2/6
f 384/2/6 385/2/6 387/2/6
f 387/2/6 385/2/6 388/2/6
f 389/1/6 390/1/6 392/1/6
f 392/1/6 390/1/6 393/1/6
f 391/1/6 392/1/6 395/1/6
f 393/1/6 394/1/6 395/1/6
f 392/1/6 393/1/6 395/1/6
f 395/1/6 394/1/6 396/1/6
f 396/1/6 394/1/6 397/1/6
f 397/1/6 394/1/6 398/1/6
f 395/2/6 396/2/6 399/2/6
f 396/1/6 397/1/6 400/1/6
f 399/2/6 396/2/6 400/2/6
f 397/2/6 398/2/6 401/2/6
f 400/1/6 397/1/6 401/1/6
f 401/2/6 398/2/6 402/2/6
f 400/2/6 401/2/6 403/2/6
f 403/2/6 401/2/6 404/2/6
